<svg xmlns="http://www.w3.org/2000/svg" width="143.985" height="124.936" viewBox="0 0 143.985 124.936">
  <g id="Сгруппировать_2167" data-name="Сгруппировать 2167" transform="translate(-628.288 -5877.937)">
    <path id="Контур_160" data-name="Контур 160" d="M-701.43,3237.341a28.114,28.114,0,0,1,19.946,8.263,28.114,28.114,0,0,1,8.261,19.943,28.11,28.11,0,0,1-8.261,19.943,28.114,28.114,0,0,1-19.946,8.264h-23.114a5.083,5.083,0,0,1-3.6-1.5,5.078,5.078,0,0,1-1.493-3.6v-23.114a28.114,28.114,0,0,1,8.261-19.943,28.11,28.11,0,0,1,19.943-8.263Zm-106.924-15.8a1.7,1.7,0,0,1-.315.032,1.6,1.6,0,0,1-1.6-1.6,1.606,1.606,0,0,1,1.29-1.573v-.01c10.512-1.063,20.268-.587,28.864,2.252a42.168,42.168,0,0,1,22.036,16.6l.03.05a18.179,18.179,0,0,1,3.177,8.488,10.205,10.205,0,0,1-1.774,6.543,95.278,95.278,0,0,1,1.412,15.253,102.274,102.274,0,0,0,5.027,8.98c2.732,4.513,5.128,8.471,5.288,11.419s-1.41,4.8-5.838,5.042l-.789-.009a8.578,8.578,0,0,0-1.763.064c-.079.02.16.235.4,1.091a8.023,8.023,0,0,1,.565,4.93,5.584,5.584,0,0,1-1.668,2.794,8.659,8.659,0,0,1,.783,4.811,7.591,7.591,0,0,1-2.881,4.761c-.062.708-.148,1.382-.257,2.026-.723,4.278-2.437,7.207-4.832,9.038a12.765,12.765,0,0,1-8.788,2.3,21.889,21.889,0,0,1-2.208-.261l-.124-.021-.152-.053c-3.018-1.084-5.305-1-6.661.552-1.568,1.8-2.263,5.457-1.9,11.361.276,2.659-.332,4.491-1.908,5.409-1.427.833-3.491.689-6.242-.518l-10.813-3.395a9.188,9.188,0,0,1-1.637,2.227l-.006.006a9.09,9.09,0,0,1-6.445,2.674,9.09,9.09,0,0,1-6.445-2.674l-.006-.006a9.1,9.1,0,0,1-2.674-6.446,9.105,9.105,0,0,1,2.674-6.446l.006-.006a9.1,9.1,0,0,1,6.445-2.672,9.1,9.1,0,0,1,6.445,2.672l.006.006a9.1,9.1,0,0,1,2.674,6.446,9.244,9.244,0,0,1-.073,1.148,110.182,110.182,0,0,1,11.066,3.5c1.784.789,2.907,1.012,3.421.714.368-.214.468-1.018.325-2.355l-.006-.075c-.424-6.808.552-11.233,2.687-13.678,2.319-2.659,5.724-3,9.99-1.51.6.1,1.189.165,1.763.2a9.681,9.681,0,0,0,6.642-1.651c1.763-1.346,3.042-3.612,3.617-7.021a23.441,23.441,0,0,0,.276-2.428l.049-.752.61-.443a4.826,4.826,0,0,0,2.191-3.112,6.453,6.453,0,0,0-1.033-4.02l-.755-1.348,1.326-.8a2.864,2.864,0,0,0,1.412-1.724,5.059,5.059,0,0,0-.456-3.033l-.062-.193c-.89-3.339-.175-4.588,1.829-5.123a9.7,9.7,0,0,1,2.633-.167l.6.006c2.081-.115,2.837-.728,2.783-1.681-.116-2.153-2.315-5.784-4.822-9.926a103.617,103.617,0,0,1-5.335-9.562l-.133-.285-.015-.4a91.565,91.565,0,0,0-1.493-15.7l-.145-.715.445-.575a7.189,7.189,0,0,0,1.547-4.992,15.028,15.028,0,0,0-2.644-6.92,39.058,39.058,0,0,0-20.4-15.366c-8.062-2.661-17.274-3.125-27.236-2.145Zm114.327,53.062h-22.087a1.207,1.207,0,0,0-1.209,1.207,1.209,1.209,0,0,0,1.209,1.208h22.087a1.208,1.208,0,0,0,1.207-1.208,1.207,1.207,0,0,0-1.207-1.207Zm-22.087-6.475h27.5a1.209,1.209,0,0,0,1.209-1.208,1.207,1.207,0,0,0-1.209-1.207h-27.5a1.207,1.207,0,0,0-1.209,1.207,1.209,1.209,0,0,0,1.209,1.208Zm27.5-11.306h-27.5a1.207,1.207,0,0,0-1.209,1.207,1.208,1.208,0,0,0,1.209,1.208h27.5a1.208,1.208,0,0,0,1.209-1.208,1.207,1.207,0,0,0-1.209-1.207ZM-803.9,3329.49a5.9,5.9,0,0,0-4.182-1.727,5.893,5.893,0,0,0-4.182,1.727l-.007.007a5.889,5.889,0,0,0-1.728,4.182,5.894,5.894,0,0,0,1.728,4.184l.007.007a5.9,5.9,0,0,0,4.182,1.726,5.9,5.9,0,0,0,4.182-1.726l.006-.007a5.891,5.891,0,0,0,1.726-4.184,5.886,5.886,0,0,0-1.726-4.182l-.006-.007Zm120.475-81.947a25.383,25.383,0,0,0-18.005-7.457,25.383,25.383,0,0,0-18.005,7.457,25.393,25.393,0,0,0-7.457,18v23.114a2.341,2.341,0,0,0,.691,1.658,2.335,2.335,0,0,0,1.658.691h23.114a25.384,25.384,0,0,0,18.005-7.457,25.387,25.387,0,0,0,7.459-18.006A25.386,25.386,0,0,0-683.425,3247.543Z" transform="translate(1445.496 2660.069)" fill="#40f" fill-rule="evenodd"/>
    <circle id="Эллипс_73" data-name="Эллипс 73" cx="7.5" cy="7.5" r="7.5" transform="translate(630 5987)" fill="#40f"/>
  </g>
</svg>
