<svg xmlns="http://www.w3.org/2000/svg" xmlns:xlink="http://www.w3.org/1999/xlink" width="128.173" height="127.028" viewBox="0 0 128.173 127.028">
  <defs>
    <linearGradient id="linear-gradient" x1="0.875" y1="0.091" x2="0.126" y2="1" gradientUnits="objectBoundingBox">
      <stop offset="0" stop-color="#d600ec"/>
      <stop offset="1" stop-color="#21a4fd"/>
    </linearGradient>
  </defs>
  <path id="Контур_74" data-name="Контур 74" d="M-525.727,825.482l5.241.451,4.993.916c2.294.492,9.412,2.443,10.484,3.73,2.539.123,9.97,5.6,11.759,6.975,3.848,2.944,7.19,8.325,12.07,4.663a5.539,5.539,0,0,0,1.475-6.7c-.973-2.021-7.845-7.494-9.9-8.872-.993-.667-1.846-1.267-2.856-1.906-.619-.393-2.5-1.313-2.725-1.756a22.891,22.891,0,0,1-2.865-1.405l-2.022-.988c-.067-.038-.285-.185-.333-.215l-.323-.251a5.368,5.368,0,0,1-2.468-.938,10.868,10.868,0,0,1-1.525-.463c-.516-.212-.036.027-.518-.253a1.321,1.321,0,0,1-.477-.354c-.874.027-6.787-1.807-8.491-2.173a67.651,67.651,0,0,0-28.987.308c-11.072,2.41-20.274,7.687-28.613,14.71l-2.715,2.545a5.335,5.335,0,0,0-2.185,3.328,5.354,5.354,0,0,0,4.181,6.419c3.556.687,5.788-2.057,7.233-3.52A45.4,45.4,0,0,1-559.257,835a55.8,55.8,0,0,1,33.529-9.516Zm-14.8,114.584,1.775-1.174c.079-.574.085-.378.6-.889a6.751,6.751,0,0,0,.889-.892c.933-1.221.111-1.149.115-2.528-.92-.887-1.935-4.325-2.32-5.71a39.922,39.922,0,0,1-2.118-4.675c-.518-1.188-2.08-3.8-2.1-4.747-.648-.631-5.823-10.489-5.87-10.607l-4.9-7.334c-.708-1.041-4.8-6.282-4.981-7.163a3.2,3.2,0,0,1-.47-.385c-.077-.07-.3-.287-.391-.39a1.735,1.735,0,0,1-.51-.817c-1.279-1.045-2.067-2.862-3.487-3.8a12.313,12.313,0,0,0-4.775,1.332,16.989,16.989,0,0,0-3.5,2.693c.443,1.566,2.545,4.675,3.391,6.216l17.428,30.14c2.339,3.925,4.563,8.385,7.072,12.206a14.293,14.293,0,0,0,4.142-1.479Zm43.985-45.722c-.18.887-2.884,4.163-3.453,4.934a149.077,149.077,0,0,0-18.187,34.145c-.932,2.474-1.559,2.749.1,4.337.474.453.793.586.87,1.128.766.431,1.145.749,1.8,1.174a13,13,0,0,0,4.111,1.482c1.3-1.91,2.4-4.173,3.593-6.17s2.321-4.092,3.484-6.036L-486.8,899.2c.879-1.583,2.913-4.59,3.4-6.214a12.625,12.625,0,0,0-7-3.875c-1.747-.214-1.874.137-3.486,2.253a17.512,17.512,0,0,1-2.662,2.983Zm24.507-30.375a52.782,52.782,0,0,0-3.993-9.845c-1.5-2.877-5.05-7.807-5.453-8.722,2.807-1.046,2.376-2.065,4.075-3.328,1.679,1.521,4.429,6.349,5.74,8.7,11.944,21.416,9.906,47.735-4.212,67.857a48.055,48.055,0,0,1-6.787,7.917,8.941,8.941,0,0,0-2.072-1.723,23.663,23.663,0,0,1-2.916,4.316c-5.9,7.159-11.775,9.147-12.289,9.739l-.516.2c-2.48.814-4.716,1.9-7.5,2.309a55.637,55.637,0,0,1,3.151-5.614l22.895-39.458.415.844c2.284,6.134,1.508,13.269.407,19.2,2.419-2.937,8.715-13.636,8.623-16.712.624-.807,1.554-4.833,1.665-5.626,1.739-5.207,1.909-19.515.113-24.744l-1.344-5.311ZM-591.673,874.93c-.774-5.134,4.879-20.237,8.34-25.945,1.106-1.824,3.431-5.679,4.775-6.911,1.646,1.227,1.34,2.35,4.062,3.327a31.293,31.293,0,0,1-2.739,4.171c-8.089,12.559-9.968,24.317-8.876,39.441.075.417.1.8.164,1.205.144.855.032.759.46,1.337-.314,2.709,2.9,11.269,4.014,13.7,1.694,3.694,4.356,8.66,6.6,11.108-1.33-7.2-1.856-13.236.733-20.165a46.918,46.918,0,0,1,3.274,5.46l19.62,33.965a56.6,56.6,0,0,1,3.246,5.768,35.777,35.777,0,0,1-13.8-5.986,23.2,23.2,0,0,1-2.72-2.291c-2.082-2.209-5.209-4.828-6.711-8.276-.986.436-1.26,1.062-2.067,1.715a31.483,31.483,0,0,1-3.265-3.433,32.728,32.728,0,0,1-3.122-3.882c-7.845-11.657-9.267-16.317-11.908-29.924l-.41-5.257-.024-5.007Z" transform="translate(592.029 -814.516)" fill-rule="evenodd" fill="url(#linear-gradient)"/>
</svg>
