<svg xmlns="http://www.w3.org/2000/svg" width="116.921" height="78.176" viewBox="0 0 116.921 78.176">
  <g id="Сгруппировать_2157" data-name="Сгруппировать 2157" transform="translate(-402 -6505)">
    <path id="Контур_91" data-name="Контур 91" d="M-945.209,1688.844l35.714,33.444a6.279,6.279,0,0,1,4.222-1.625,6.274,6.274,0,0,1,4.451,1.844,6.336,6.336,0,0,1,1.291,1.868l21.407-6.722a6.5,6.5,0,0,1-.07-.943,6.271,6.271,0,0,1,1.844-4.45,6.276,6.276,0,0,1,4.451-1.845,6.279,6.279,0,0,1,4.452,1.845,6.278,6.278,0,0,1,1.844,4.45,6.283,6.283,0,0,1-1.844,4.452l-.015.013,21.293,28.6.834-8.761a1.171,1.171,0,0,1,1.171-1.159,1.171,1.171,0,0,1,1.171,1.172,1.1,1.1,0,0,1-.02.21l-1.161,12.2,0,0a.924.924,0,0,1-.919.809.914.914,0,0,1-.3-.05l0,.005-11.738-4.134a1.172,1.172,0,0,1-.851-1.126,1.172,1.172,0,0,1,1.172-1.173,1.179,1.179,0,0,1,.461.1l7.927,2.791-20.967-28.161a6.275,6.275,0,0,1-2.5.518,6.276,6.276,0,0,1-4.451-1.843,6.353,6.353,0,0,1-1-1.3l-21.635,6.791c0,.1.007.2.007.3a6.274,6.274,0,0,1-1.844,4.45,6.276,6.276,0,0,1-4.451,1.843,6.282,6.282,0,0,1-4.451-1.843,6.279,6.279,0,0,1-1.842-4.45,6.284,6.284,0,0,1,.656-2.8l-35.9-33.62a8.05,8.05,0,0,1-5,1.73,8.075,8.075,0,0,1-5.72-2.373l-.005-.005a8.075,8.075,0,0,1-2.373-5.721,8.076,8.076,0,0,1,2.373-5.727,8.089,8.089,0,0,1,5.726-2.373,8.071,8.071,0,0,1,5.727,2.373,8.076,8.076,0,0,1,2.373,5.727,8.044,8.044,0,0,1-1.494,4.68Zm76.1,25.072a3.942,3.942,0,0,0-2.795-1.157,3.939,3.939,0,0,0-2.794,1.157,3.937,3.937,0,0,0-1.159,2.794,3.938,3.938,0,0,0,1.159,2.795,3.933,3.933,0,0,0,2.794,1.157,3.936,3.936,0,0,0,2.795-1.157,3.944,3.944,0,0,0,1.157-2.795,3.942,3.942,0,0,0-1.157-2.794Zm-33.372,10.245a3.947,3.947,0,0,0-2.8-1.157,3.943,3.943,0,0,0-2.794,1.157,3.944,3.944,0,0,0-1.157,2.8,3.941,3.941,0,0,0,1.157,2.794,3.943,3.943,0,0,0,2.794,1.157,3.947,3.947,0,0,0,2.8-1.157,3.942,3.942,0,0,0,1.157-2.794,3.945,3.945,0,0,0-1.157-2.8Zm-45.267-44.069a5.743,5.743,0,0,0-4.072-1.687,5.741,5.741,0,0,0-4.07,1.682v.005a5.742,5.742,0,0,0-1.685,4.072,5.739,5.739,0,0,0,1.68,4.07l.005.005a5.738,5.738,0,0,0,4.07,1.68,5.742,5.742,0,0,0,4.072-1.685h.005a5.739,5.739,0,0,0,1.682-4.07A5.743,5.743,0,0,0-947.744,1680.092Z" transform="translate(1361.914 4828.936)" fill="#40f" fill-rule="evenodd"/>
    <circle id="Эллипс_50" data-name="Эллипс 50" cx="7" cy="7" r="7" transform="translate(403 6506)" fill="#40f"/>
    <circle id="Эллипс_51" data-name="Эллипс 51" cx="5.5" cy="5.5" r="5.5" transform="translate(451 6550)" fill="#40f"/>
    <circle id="Эллипс_52" data-name="Эллипс 52" cx="5.5" cy="5.5" r="5.5" transform="translate(485 6540)" fill="#40f"/>
  </g>
</svg>
