<svg xmlns="http://www.w3.org/2000/svg" xmlns:xlink="http://www.w3.org/1999/xlink" width="116.153" height="113.29" viewBox="0 0 116.153 113.29">
  <defs>
    <linearGradient id="linear-gradient" x1="1" y1="0.094" x2="0" y2="1" gradientUnits="objectBoundingBox">
      <stop offset="0" stop-color="#d600ec"/>
      <stop offset="1" stop-color="#21a4fd"/>
    </linearGradient>
  </defs>
  <path id="Контур_73" data-name="Контур 73" d="M-766.329,879.081a4.123,4.123,0,0,0,1.132,3.255c2.036,1.653,4.265,1.212,5.65-.976a74.042,74.042,0,0,0,2.887-7.069l12.732-32.189c.568-1.414,5-13.043,5.689-14.341a24.993,24.993,0,0,0,3.58.925l3.6.9,51.13,12.753c-.6,1.137-6.737,16.247-7.516,18.2-3.851,9.66-8.024,19.237-11.9,28.869-1.757,4.364-4.539,11.394-6.616,15.548-.848,1.7-1.648,3.18-2.489,4.86a42.52,42.52,0,0,1-2.624,4.843c-3.267,4.913-7.443,8.036-13.236,5.132a10.085,10.085,0,0,1-1.622-.986c-.267-.212-.405-.422-.67-.633-1.236-.978-2.489-1.807-3.121-3.4a12.973,12.973,0,0,1-1.048-5.472,20.494,20.494,0,0,1,1.3-5.687c-.67-.323-6.513-1.8-7.347-2.017-4.829-1.267-9.818-2.713-14.506-4.339-2.378-.824-4.489-1.764-6.8-2.687l-25.714-10.8a2.691,2.691,0,0,0-.414-.183c-.4-.113-.188-.08-.337-.01-.144.3-.593,5.494-.593,6.282v2.727c0,6.542,3.277,14.2,9.125,17.069,2.607,1.277,6.34,2.761,9.094,3.942l17.151,7.383c6.557,2.732,13.011,5.636,19.539,8.433a25.363,25.363,0,0,0,4.874,1.645,25.408,25.408,0,0,0,5.041.759h2.216a18.726,18.726,0,0,0,9.812-3.152,14.949,14.949,0,0,0,2.879-2.691c.169-.2.291-.383.458-.609a18.027,18.027,0,0,0,1.633-2.752l3.079-5.81c.272-.545.526-.925.791-1.462,1.445-2.92,3.147-5.65,4.583-8.573l1.412-3.093c4.631-11.578,9.057-23.226,13.7-34.777l2.518-6.373c1.156-3.258,2.494-6.325,3.764-9.51.821-2.055,1.75-4.134,2.574-6.2a24.38,24.38,0,0,0,1.913-6.722v-1.622a6.647,6.647,0,0,0-3.2-5.152,21.057,21.057,0,0,0-5.823-2.356c-2.147-.622-11.269-2.453-13.667-2.927-1.54-.3-2.968-.6-4.5-.952l-13.592-2.882c-8.368-1.732-16.556-3.583-24.97-5.253-2.911-.578-3.881-.8-6.662.865a6,6,0,0,0-2.764,2.805l-9.669,23.992c-2.14,5.357-4.286,10.624-6.435,15.965-1.053,2.614-2.063,5.452-3.222,8.038-.875,1.952-2.805,6.392-2.805,8.455Zm27.972-34.135c0-4.041,4.593-6.92,8.537-4.98a4.375,4.375,0,0,1,1.508,1.1,4.542,4.542,0,0,1,1.139,1.588,5.494,5.494,0,0,1,.551,3.123c0,4.316-6.149,7.4-9.99,3.708a5.861,5.861,0,0,1-1.744-4.539Zm-.118,23.705a5.8,5.8,0,0,1-5.3-3.593,6.042,6.042,0,0,1-.3-3.667,5.877,5.877,0,0,1,8.13-4.041,5.9,5.9,0,0,1-2.53,11.3Zm-11.616,11.616a5.915,5.915,0,0,1,11.3-2.412,5.931,5.931,0,0,1-1.193,6.593,5.925,5.925,0,0,1-10.108-4.181Zm14.7,8.058c.368-.692.706-1.183,1.1-1.858l3.4-5.489a5.6,5.6,0,0,1,1.446.33l9.529,2.563c3.344.839,7.71,2.186,10.833,2.915-.106.456-1.968,3.3-2.256,3.786-.727,1.212-1.574,2.41-2.246,3.681L-724.5,891.3c-1.551-.46-10.252-2.67-10.891-2.978Zm8.771-17.423c.142-.609,2.942-4.9,3.386-5.621.227-.369.347-.595.574-.966.219-.356.356-.526.544-.88l16.38,4.361c1.833.467,3.585,1.019,5.427,1.448a10.74,10.74,0,0,1-1.115,1.966l-3.39,5.5c-1.868-.436-3.621-1-5.523-1.469-4.392-1.087-9.093-2.523-13.534-3.653a21.719,21.719,0,0,0-2.75-.687Zm5.807-17.541c.38-.716.733-1.233,1.147-1.933.609-1.029,3.229-5.055,3.357-5.534L-694.5,851.7c-.068.822-4.162,6.515-4.385,7.467a6.935,6.935,0,0,1-1.446-.332c-4.751-1.169-10.182-2.781-15.028-4.053Z" transform="translate(785.174 -818.535)" fill-rule="evenodd" fill="url(#linear-gradient)"/>
</svg>
