<svg xmlns="http://www.w3.org/2000/svg" width="131.117" height="104.305" viewBox="0 0 131.117 104.305">
  <g id="Сгруппировать_2156" data-name="Сгруппировать 2156" transform="translate(-894 -6492)">
    <path id="Контур_93" data-name="Контур 93" d="M-629.895,1676.868c19.228-6.231,38.357-6.342,56.8,2.544l.791.382v3.713a18.27,18.27,0,0,1,7.969,4.749l0,75.027c.076,3.579-1.68,5.931-5.347,6.264-17.357,1.5-42.042.141-60.208.2v-2.78l60.015-.2c2.155-.216,2.8-1.379,2.76-3.443l.385-73.533a15.347,15.347,0,0,0-5.572-3.357v73.211l-1.87-.679A79.946,79.946,0,0,0-601.6,1754a82.046,82.046,0,0,0-26.9,4.653v.988a1.392,1.392,0,0,1-1.4,1.386,1.392,1.392,0,0,1-1.4-1.386v-.988A82.037,82.037,0,0,0-658.186,1754a79.931,79.931,0,0,0-27.427,4.973l-1.87.679v-73.211a15.346,15.346,0,0,0-5.572,3.357l.385,73.533c-.047,2.066.607,3.227,2.76,3.443l16.423.054a7.9,7.9,0,0,1,2.058-3.586,7.893,7.893,0,0,1,5.592-2.315,7.9,7.9,0,0,1,5.585,2.315l.006.007a7.881,7.881,0,0,1,2.315,5.585,7.881,7.881,0,0,1-2.315,5.59,7.89,7.89,0,0,1-5.59,2.317,7.888,7.888,0,0,1-5.587-2.317l-.005-.006a7.9,7.9,0,0,1-2.192-4.189c-5.875-.06-11.477-.253-16.481-.681-3.668-.333-5.427-2.684-5.35-6.264v-75.027a18.261,18.261,0,0,1,7.969-4.749v-3.713l.791-.382c18.441-8.886,37.571-8.774,56.8-2.544Zm-48.494,16.19,0,0a48.464,48.464,0,0,1,20.573-4.662,46.024,46.024,0,0,1,20.134,4.84v0a1.379,1.379,0,0,0,.612.141,1.388,1.388,0,0,0,1.388-1.388,1.391,1.391,0,0,0-.778-1.249l-.009,0a48.767,48.767,0,0,0-21.336-5.119,51.234,51.234,0,0,0-21.751,4.911l0,0a1.393,1.393,0,0,0-.808,1.264,1.389,1.389,0,0,0,1.39,1.388,1.379,1.379,0,0,0,.581-.129Zm0,16.9,0,0a48.471,48.471,0,0,1,20.573-4.662,46.008,46.008,0,0,1,20.134,4.84v0a1.38,1.38,0,0,0,.612.142,1.388,1.388,0,0,0,1.388-1.388,1.39,1.39,0,0,0-.778-1.249l-.009,0a48.764,48.764,0,0,0-21.336-5.12,51.215,51.215,0,0,0-21.751,4.913l0,0a1.393,1.393,0,0,0-.808,1.263,1.389,1.389,0,0,0,1.39,1.388,1.379,1.379,0,0,0,.581-.129Zm0,16.53,0,0a48.444,48.444,0,0,1,20.571-4.662,46.047,46.047,0,0,1,20.136,4.839h0a1.376,1.376,0,0,0,.612.141,1.388,1.388,0,0,0,1.388-1.388,1.39,1.39,0,0,0-.778-1.249l-.009-.006a48.8,48.8,0,0,0-21.338-5.12,51.232,51.232,0,0,0-21.749,4.913l0,0a1.389,1.389,0,0,0-.808,1.262,1.39,1.39,0,0,0,1.39,1.39,1.382,1.382,0,0,0,.581-.128Zm0,16.3,0,0a48.442,48.442,0,0,1,20.573-4.662,46.042,46.042,0,0,1,20.134,4.839h0a1.4,1.4,0,0,0,.612.141,1.389,1.389,0,0,0,1.388-1.39,1.394,1.394,0,0,0-.778-1.249l-.009,0a48.8,48.8,0,0,0-21.336-5.119,51.234,51.234,0,0,0-21.751,4.913l0,0a1.389,1.389,0,0,0-.808,1.262,1.39,1.39,0,0,0,1.39,1.39,1.382,1.382,0,0,0,.581-.128Zm56.278-49.549v0l.022-.011a46.011,46.011,0,0,1,20.112-4.829,48.464,48.464,0,0,1,20.573,4.662l0,0a1.381,1.381,0,0,0,.583.129,1.388,1.388,0,0,0,1.388-1.388,1.393,1.393,0,0,0-.808-1.264l0,0a51.228,51.228,0,0,0-21.751-4.911,48.767,48.767,0,0,0-21.336,5.119l-.007,0h0a1.388,1.388,0,0,0-.78,1.249,1.389,1.389,0,0,0,1.39,1.388,1.371,1.371,0,0,0,.61-.141Zm0,16.9v0l.022-.011a46.011,46.011,0,0,1,20.112-4.829,48.471,48.471,0,0,1,20.573,4.662l0,0a1.381,1.381,0,0,0,.583.129,1.388,1.388,0,0,0,1.388-1.388,1.393,1.393,0,0,0-.808-1.263l0,0a51.215,51.215,0,0,0-21.751-4.913,48.764,48.764,0,0,0-21.336,5.12l-.007,0h0a1.387,1.387,0,0,0-.78,1.249,1.389,1.389,0,0,0,1.39,1.388,1.371,1.371,0,0,0,.61-.142Zm0,16.529h0l.022-.011a46.036,46.036,0,0,1,20.112-4.827,48.446,48.446,0,0,1,20.573,4.662l0,0a1.385,1.385,0,0,0,.583.128,1.39,1.39,0,0,0,1.388-1.39,1.389,1.389,0,0,0-.808-1.262l0,0a51.233,51.233,0,0,0-21.749-4.913,48.8,48.8,0,0,0-21.338,5.12l-.007.006h0a1.385,1.385,0,0,0-.78,1.249,1.389,1.389,0,0,0,1.39,1.388,1.367,1.367,0,0,0,.61-.141Zm0,16.3h0l.022-.011a46.036,46.036,0,0,1,20.112-4.827,48.442,48.442,0,0,1,20.573,4.662l0,0a1.385,1.385,0,0,0,.583.128,1.39,1.39,0,0,0,1.388-1.39,1.388,1.388,0,0,0-.808-1.262l0,0a51.233,51.233,0,0,0-21.749-4.913,48.805,48.805,0,0,0-21.338,5.119l-.007,0v0a1.384,1.384,0,0,0-.78,1.247,1.389,1.389,0,0,0,1.39,1.39,1.394,1.394,0,0,0,.61-.141Zm-22.092,26.869v.058c5.019-.091,9.854-.162,14.307-.147v-2.78l-14.307-.047v0a1.456,1.456,0,0,0-1.457,1.457,1.456,1.456,0,0,0,1.457,1.456Zm-18.018-4.628a5.1,5.1,0,0,0-3.616-1.492,5.1,5.1,0,0,0-3.618,1.5,5.1,5.1,0,0,0-1.5,3.618,5.108,5.108,0,0,0,1.495,3.619,5.112,5.112,0,0,0,3.621,1.495,5.1,5.1,0,0,0,3.616-1.5,5.1,5.1,0,0,0,1.5-3.616,5.1,5.1,0,0,0-1.493-3.618l-.005-.006Zm30.93-9.5v-76.36c-18.07-5.747-36.006-5.924-53.4,2.2V1755.7a82.205,82.205,0,0,1,26.506-4.481,84.582,84.582,0,0,1,26.895,4.491Zm30.033-80.456a81.034,81.034,0,0,0-27.241,4.1v76.36a84.582,84.582,0,0,1,26.9-4.491A82.161,82.161,0,0,1-575.1,1755.7v-74.153A66.3,66.3,0,0,0-601.258,1675.251Z" transform="translate(1589.454 4819.565)" fill="#40f" fill-rule="evenodd"/>
    <circle id="Эллипс_53" data-name="Эллипс 53" cx="6.5" cy="6.5" r="6.5" transform="translate(917 6582)" fill="#40f"/>
  </g>
</svg>
