<svg xmlns="http://www.w3.org/2000/svg" width="129.434" height="173.216" viewBox="0 0 129.434 173.216">
  <g id="Сгруппировать_2171" data-name="Сгруппировать 2171" transform="translate(-1477.199 -6161.965)">
    <path id="Контур_163" data-name="Контур 163" d="M-387.137,3432.754a9.1,9.1,0,0,1,6.445,2.674l.006.006a9.1,9.1,0,0,1,2.674,6.446,9.1,9.1,0,0,1-2.674,6.445l-.006.007a9.1,9.1,0,0,1-6.445,2.674,9.1,9.1,0,0,1-6.445-2.674l-.006-.007,0,0a61.257,61.257,0,0,0-23.415,48.219,61.331,61.331,0,0,0,29.683,52.561v-27.4h1.521v-27.571h6.2v-21.388h4.313V3462.9h3.908v-6.082h4.368a118.369,118.369,0,0,0,3.6-35.6l-.064-1.667h6.227v-29.909a1.605,1.605,0,0,1,1.6-1.6,1.605,1.605,0,0,1,1.6,1.6v29.909h6.229l-.066,1.667a118.222,118.222,0,0,0,3.6,35.6h4.368v6.082h3.906v9.842h4.313v21.388h6.2V3521.7h1.519V3549.1a61.327,61.327,0,0,0,29.683-52.559,61.349,61.349,0,0,0-31.732-53.745l.009-.01a1.68,1.68,0,0,1-.693-1.358,1.679,1.679,0,0,1,2.661-1.356l.009-.013a64.706,64.706,0,0,1,33.1,56.483,64.718,64.718,0,0,1-64.716,64.718,64.718,64.718,0,0,1-64.718-64.718,64.62,64.62,0,0,1,24.872-51,9.061,9.061,0,0,1-.768-3.661,9.1,9.1,0,0,1,2.672-6.446l.006-.006a9.1,9.1,0,0,1,6.445-2.674Zm51.719,95.857a1.606,1.606,0,0,0-1.6,1.6v18.929a1.6,1.6,0,0,0,1.6,1.6,1.6,1.6,0,0,0,1.6-1.6v-18.929a1.606,1.606,0,0,0-1.6-1.6Zm-38.851,20.534v-18.929a1.606,1.606,0,0,0-1.6-1.6,1.606,1.606,0,0,0-1.6,1.6v18.929a1.6,1.6,0,0,0,1.6,1.6,1.6,1.6,0,0,0,1.6-1.6Zm39.878-31.972h.006v-14.953h-.006a1.6,1.6,0,0,0-1.6-1.739,1.6,1.6,0,0,0-1.6,1.739h-.006v14.953h.006a1.6,1.6,0,0,0,1.6,1.739,1.6,1.6,0,0,0,1.6-1.739Zm-39.314,0h.006v-14.953h-.006a1.6,1.6,0,0,0-1.6-1.739,1.6,1.6,0,0,0-1.6,1.739h-.006v14.953h.006a1.6,1.6,0,0,0,1.6,1.739,1.6,1.6,0,0,0,1.6-1.739Zm13.714-31.012a1.606,1.606,0,0,1,1.6,1.6v70.073c1.823.082,3.656.082,5.478,0v-70.073a1.605,1.605,0,0,1,1.6-1.6,1.606,1.606,0,0,1,1.6,1.6v69.851q1.325-.129,2.631-.313v-63.171H-334.9v-18.179h-41.493v18.179h12.17V3557.3q1.306.184,2.629.31v-69.848a1.606,1.606,0,0,1,1.6-1.6Zm5.949-63.4v34.058h6.443a121.065,121.065,0,0,1-3.534-34.058Zm-1.6,37.267h-12.527v2.873h25.052v-2.873Zm0,6.082h-16.435v6.633h32.868v-6.633Zm28.468,58.8H-343.86v31.854a60.876,60.876,0,0,0,16.681-5.859v-26Zm-16.681-27.571V3521.7H-328.7v-24.363Zm-19.834-40.52h6.443v-34.058h-2.909a121.147,121.147,0,0,1-3.534,34.058Zm-20.423,94.086a60.868,60.868,0,0,0,16.683,5.859v-31.854h-16.683v26Zm16.683-29.2v-24.363H-382.6V3521.7Zm-15.522-84.013a5.888,5.888,0,0,0-4.182-1.726,5.888,5.888,0,0,0-4.182,1.726l-.006.006a5.89,5.89,0,0,0-1.726,4.183,5.883,5.883,0,0,0,1.726,4.182l.006.006a5.89,5.89,0,0,0,4.182,1.729,5.89,5.89,0,0,0,4.182-1.729l.009-.006a5.892,5.892,0,0,0,1.726-4.182,5.9,5.9,0,0,0-1.726-4.183Z" transform="translate(1897.564 2773.924)" fill="#40f" fill-rule="evenodd"/>
    <circle id="Эллипс_77" data-name="Эллипс 77" cx="7.5" cy="7.5" r="7.5" transform="translate(1503 6209)" fill="#40f"/>
  </g>
</svg>
