<svg xmlns="http://www.w3.org/2000/svg" xmlns:xlink="http://www.w3.org/1999/xlink" width="101.535" height="105.278" viewBox="0 0 101.535 105.278">
  <defs>
    <linearGradient id="linear-gradient" x1="1" x2="0.185" y2="1" gradientUnits="objectBoundingBox">
      <stop offset="0" stop-color="#d600ec"/>
      <stop offset="1" stop-color="#21a4fd"/>
    </linearGradient>
  </defs>
  <path id="Контур_76" data-name="Контур 76" d="M-332.486,919.569a3.583,3.583,0,0,1,2.969-4.041c4.7-.679,5.674,6.356,1.082,7.021a3.558,3.558,0,0,1-4.051-2.98Zm29.193-6.674c-.985.309-10.982.1-12.867.1-12.659.007-25.9.171-38.429-.005-.169-4.164-.012-8.681-.012-12.884,0-5.458-.179-37.511.125-38.291a25.618,25.618,0,0,1,2.691-1.807c2.875-1.9,5.224-3.744,7.939-5.821,3.087-2.364,7.732-5.634,9.38-8.833,2.156-4.18-1.068-10.476-8.269-7.034-3.431,1.641-6.918,3.9-10.337,5.655a6.573,6.573,0,0,1-1.6.781l0-12.652,51.4.034c-.021,1.556.13,22.319-.075,23.131-2.581.166-5.234-.451-7.262.805a6.014,6.014,0,0,0,.349,10.353c1.783.927,5.228.59,7.487.591,2.026,0,6.229.215,7.94-.123a5.607,5.607,0,0,0,4.236-3.826,6.283,6.283,0,0,0-1.427-6.2c-1.933-1.833-3.245-1.472-6.342-1.592-.207-.959-.062-13.228-.062-15.307q0-3.844,0-7.686c0-2.439.243-4.911-.583-7a7.31,7.31,0,0,0-3.855-3.809c-2.012-.805-4.723-.562-7.1-.562h-38.311c-2.354,0-4.87-.253-6.925.61a7.354,7.354,0,0,0-3.8,3.887c-.792,1.961-.525,4.691-.525,7,0,2.24.248,14.125-.077,15.208-.2.287-18.155,10.294-20.459,11.536-6.434,3.467-10.476,10.556-11.524,20.315-1.168,10.86,1.5,19.055,7,24.582a24.321,24.321,0,0,0,10.2,5.776c4.706,1.426,9.6,1.07,14.845,1.075.233,6.2-1.35,10.935,3.441,14.122a7.841,7.841,0,0,0,4.72,1.084c1.491,0,45,.144,46.52-.053a7.146,7.146,0,0,0,6.2-5.443c.4-1.651.183-9.252.19-11.486,3.005-.032,4.838.041,6.494-1.689a6.267,6.267,0,0,0,1.342-6.216c-1.586-5.038-7.658-3.851-12.269-3.851-2.325,0-5.645-.333-7.434.627a5.7,5.7,0,0,0-3.022,5.082,5.635,5.635,0,0,0,2.815,5.277c2.039,1.24,4.657.6,7.26.788l-.017,3.752Zm-10.028-36.844a5.863,5.863,0,0,1,2.645-5.917c1.921-1.21,5.3-.824,7.906-.821,2.033,0,6.805-.234,8.479.246,4.78,1.373,5.275,8.125,1.27,10.655-1.937,1.226-5.322.853-7.889.848-1.951,0-6.942.224-8.474-.265a5.613,5.613,0,0,1-3.937-4.747Zm22.8,14.754a5.626,5.626,0,0,1-4.345,4.173c-1.908.342-6.462.1-8.647.1-2.957,0-5.588.414-7.611-1.125-3.9-2.969-2.569-9.648,2.381-10.506,1.973-.342,6.291-.1,8.578-.106,2.877-.01,5.65-.376,7.578,1.139a6.007,6.007,0,0,1,2.065,6.33Zm-46.4-64.647a2.735,2.735,0,0,1,1.3-.144c.59,0,14.074-.1,14.512.082a.852.852,0,0,1,.2,1.426c-.385.3-1.356.207-1.939.207h-11.655c-.822,0-2.422.28-2.745-.513A.846.846,0,0,1-336.927,826.159Z" transform="translate(391.851 -820.878)" fill-rule="evenodd" fill="url(#linear-gradient)"/>
</svg>
