<svg xmlns="http://www.w3.org/2000/svg" width="112.064" height="103.495" viewBox="0 0 112.064 103.495">
  <g id="Сгруппировать_2154" data-name="Сгруппировать 2154" transform="translate(-1410 -6772)">
    <path id="Контур_90" data-name="Контур 90" d="M-342.566,1875.067c-3.655,2.1-7.342,5.693-10.729,10.122a78.989,78.989,0,0,0-10.422,18.727c-.664,2.133-.389,4.926-.121,7.652.689,6.951.852,12.731-8.179,13.133a11.558,11.558,0,0,1-3.441-.553c-3.916-1.271-6.5-4.541-8.049-8.856-3.059-8.518-2.049-20.875.363-29.487l-26.634,0c-3.577-.214-7.172-1.66-8.536-5.205-1.606-4.195.795-8.869,3.426-12.074a8.869,8.869,0,0,1-1.385-7.7,8.156,8.156,0,0,1,3.629-4.467,10.26,10.26,0,0,1-1.556-2.749c-1.491-4.046.324-8.118,3.86-10.332a7.822,7.822,0,0,1-.8-8.376,12.782,12.782,0,0,1,11.532-7.459l31.624.154a7.913,7.913,0,0,1,2.172-4.077,7.888,7.888,0,0,1,5.59-2.315,7.888,7.888,0,0,1,5.585,2.315l.007.006a7.9,7.9,0,0,1,2.315,5.587,7.888,7.888,0,0,1-2.315,5.59,7.884,7.884,0,0,1-5.592,2.315,7.873,7.873,0,0,1-5.585-2.315l-.006-.005a7.879,7.879,0,0,1-2.211-4.3c-10.554-.061-21.109-.173-31.661-.173a10.041,10.041,0,0,0-8.916,5.812c-1.092,2.455-.735,4.846,1.489,6.485l2.084,1.537c-1.915.707-3.774,1.189-5.235,2.721-2.8,2.931-1.815,6.467.888,9.048l1.7,1.617-2.237.717a5.276,5.276,0,0,0-3.653,6.8,11.239,11.239,0,0,0,2.276,3.679l-.785.875c-2.531,2.821-3.815,5.55-3.951,7.823-.231,3.843,2.831,5.444,6.335,5.672h30.347l-.594,1.826c-2.693,8.3-3.943,21.165-.945,29.513,1.493,4.154,4.141,7.42,8.784,7.565,6.664-.312,5.979-5.194,5.5-10.079-.275-2.8-.642-6.212.287-8.914a81.736,81.736,0,0,1,10.81-19.427c3.785-4.948,7.976-8.94,12.182-11.2l-.006-.292v-41.467a6.54,6.54,0,0,1,6.525-6.526h23.514a6.54,6.54,0,0,1,6.526,6.526v41.467a6.505,6.505,0,0,1-1.917,4.606v.006a6.5,6.5,0,0,1-4.61,1.915h-23.514a6.507,6.507,0,0,1-4.61-1.915v-.006a6.58,6.58,0,0,1-1.148-1.55Zm-14.041-49.576a5.1,5.1,0,0,0-3.618-1.493,5.1,5.1,0,0,0-3.616,1.5,5.1,5.1,0,0,0-1.5,3.618,5.108,5.108,0,0,0,1.494,3.62,5.108,5.108,0,0,0,3.62,1.494,5.1,5.1,0,0,0,3.618-1.5,5.1,5.1,0,0,0,1.5-3.616,5.1,5.1,0,0,0-1.492-3.618l-.006-.005Zm19.8,50.256h23.514a3.748,3.748,0,0,0,3.735-3.735v-41.467a3.749,3.749,0,0,0-3.735-3.733h-23.514a3.747,3.747,0,0,0-3.733,3.733v41.467A3.743,3.743,0,0,0-336.808,1875.746Z" transform="translate(1828.833 4950.794)" fill="#40f" fill-rule="evenodd"/>
    <circle id="Эллипс_55" data-name="Эллипс 55" cx="6.5" cy="6.5" r="6.5" transform="translate(1462 6774)" fill="#40f"/>
  </g>
</svg>
