<svg xmlns="http://www.w3.org/2000/svg" xmlns:xlink="http://www.w3.org/1999/xlink" width="133.698" height="109.194" viewBox="0 0 133.698 109.194">
  <defs>
    <linearGradient id="linear-gradient" x1="1" y1="0.15" x2="0" y2="1" gradientUnits="objectBoundingBox">
      <stop offset="0" stop-color="#d600ec"/>
      <stop offset="1" stop-color="#21a4fd"/>
    </linearGradient>
  </defs>
  <path id="Контур_75" data-name="Контур 75" d="M-977.431,896.493l57.206,11.971c.909.179,7.61,1.668,8.284,1.668v13.146c-.757,0-7.327-1.439-8.2-1.627l-8.212-1.739c-5.06-1.166-11.12-2.3-16.361-3.422-1.274-.272-2.691-.59-4.053-.86-6.716-1.337-13.648-2.935-20.416-4.281l-8.243-1.709V896.493Zm4.547-17.447v11.182l20.63,4.31c1.335.267,2.7.588,4.055.862l38.807,8.129a15.775,15.775,0,0,1,2,.461V890.718h-.614c-.827,0-.641,1.711-3.472,1.137l-8.233-1.72c-1.376-.274-2.756-.6-4.053-.86l-32.7-6.86c-.9-.178-15.594-3.369-16.413-3.369Zm64.874,45.092V910.992c1.571,0,1.39-.321,2.773-1.4a9.445,9.445,0,0,1,1-.814c.162-.067.039-.043.224-.041.516.005,1.561.638,2.73-.475l2.771-2.392c.268-.226.335-.238.607-.5l2.768-2.4c.26-.232.345-.246.612-.494.371-.345.733-.656,1.12-.969l8.477-7.25a6.839,6.839,0,0,0,.6-.5,5.651,5.651,0,0,1,.538-.443c.238-.19.344-.337.58-.526l1.651-1.421c.268-.227.337-.238.609-.5a4.75,4.75,0,0,1,.532-.451l13.65-11.66c.342-.292.209-.332.655-.451l.009,9.469c0,.708-.005.723-.4,1.075-.3.265-.439.314-.745.605l-11.064,9.455c-.53.45-.962.764-1.468,1.236l-7.435,6.327c-1.615,1.54-5.689,4.665-7.371,6.267l-3,2.532c-1.839,1.485-9.317,8.122-10.424,8.864ZM-980.5,860.124c1.323.309,2.727.544,4.055.86l8.118,1.713c1.4.289,2.8.542,4.169.868l8.116,1.711c10.876,2.251,22.035,4.74,32.808,6.879l8.223,1.73v13.148l-16.353-3.431c-6.78-1.345-13.713-2.949-20.416-4.279-8.14-1.617-16.474-3.533-24.594-5.14l-4.127-.911V860.124Zm77.039,44.6c.875-.586,2.251-1.949,3.072-2.579.515-.395.976-.869,1.527-1.3,1.978-1.549,5.687-5,7.566-6.443l6.908-5.869c.279-.243.475-.38.739-.614,1.74-1.55,5.405-4.487,6.821-5.834l6.841-5.814c.554-.434,1-.851,1.516-1.311l6.048-5.132c.786-.6.877-.538.863-1.839-.041-3.72,0-7.462,0-11.183L-887.3,878.749c-.333.26-.368.314-.656.573l-3.867,3.26c-.256.227-.316.313-.585.52l-7.689,6.564c-1.58,1.227-1.59,1.913-3.369,1.913v13.147Zm-7.617-16.956V874.747c1.173,0,1.571-.328,2.549-1.26l2.583-2.21c.277-.246.386-.282.674-.554l18.491-15.789c.292-.273.362-.323.663-.566l16.107-13.751c.323-.3.263-.4.708-.52,0,3.721-.038,7.464,0,11.183.016,1.513-.05,1.058-.894,1.809-.3.267-.443.335-.737.615L-889.856,869.8c-.5.482-1.033.824-1.535,1.291l-18.12,15.423c-.277.243-.479.381-.739.614a2.584,2.584,0,0,1-.831.643ZM-988,864.671c0,3.7.46,6.414,2.234,9.19a10.691,10.691,0,0,0,2.279,2.638c.79.651,2.815.834,3.841,1.074-1.267,2.643-.844,7.457.108,10.337.279.846,1.13,2.32,1.245,2.809l-2.773,1.9A8.277,8.277,0,0,0-984,896.44a13,13,0,0,0-.826,2.983,15.623,15.623,0,0,0,2.9,11.888c1.653,2.123,2.7,2.036,5.1,2.52,10.551,2.13,21.057,4.482,31.6,6.611l34.627,7.272c3.357.667,3.362,1.32,5.816-.963l8.171-6.944c3.075-2.86,7.171-6.047,10.445-8.966l11.862-10.132c.53-.45.961-.764,1.468-1.236,1.906-1.771,4.019-3.366,5.961-5.1l5.963-5.1a2.126,2.126,0,0,0,1.07-1.88c0-1.48-1.127-1.805-2.335-2.087V874.747c.451-.121.521-.381.913-.685l4.585-3.893c.824-.766,1.383-1.058,1.383-2.426,0-1.253-1.417-1.757-2.457-1.844V855.209c0-2.286-.027-1.513,1.383-2.916,1.715-1.706.323-3.132-.451-3.422-.687-.258-7.788-1.525-8.551-1.525V836.779c0-.376.072-.2.245-.371.8-.788,1.968-1.2,1.968-2.578a1.912,1.912,0,0,0-.836-1.622c-.737-.555-5.344-1.166-6.4-1.342l-17.269-3.127c-2.988-.537-5.764-1.017-8.744-1.578-2.932-.552-5.756-.981-8.641-1.557-7.217-1.438-14.52-2.491-21.748-3.932-.7-.14-1.438-.243-2.19-.39-3.33-.65-2.942-.412-6.351,2.068l-2.826,1.966c-.354.258-.617.4-.95.648l-5.563,3.9c-.354.258-.615.4-.949.646l-4.624,3.24c-.675.45-1.217.846-1.9,1.3l-1.868,1.325c-3.351,2.439-6.867,4.669-10.217,7.108-.359.261-.569.417-.937.66l-18.691,13.009C-986.142,857.542-988,861.031-988,864.671Z" transform="translate(988.497 -819.496)" stroke="rgba(0,0,0,0)" stroke-width="1" fill-rule="evenodd" fill="url(#linear-gradient)"/>
</svg>
