<svg xmlns="http://www.w3.org/2000/svg" width="104.904" height="102.354" viewBox="0 0 104.904 102.354">
  <g id="Сгруппировать_2153" data-name="Сгруппировать 2153" transform="translate(-1413 -6493)">
    <path id="Контур_92" data-name="Контур 92" d="M-363.182,1671.216a51.177,51.177,0,0,1,51.177,51.177,51.178,51.178,0,0,1-51.177,51.177,51.178,51.178,0,0,1-51.177-51.177,51.3,51.3,0,0,1,1.545-12.53,7.917,7.917,0,0,1-1.785-1.34,7.863,7.863,0,0,1-2.309-5.577,7.864,7.864,0,0,1,2.309-5.577,7.863,7.863,0,0,1,5.577-2.31,7.86,7.86,0,0,1,5.577,2.31,7.865,7.865,0,0,1,2.311,5.577,7.864,7.864,0,0,1-2.311,5.577,7.859,7.859,0,0,1-5.577,2.31,8.168,8.168,0,0,1-1.135-.08,48.468,48.468,0,0,0-1.411,11.64,48.386,48.386,0,0,0,48.386,48.385,48.386,48.386,0,0,0,48.386-48.385,48.387,48.387,0,0,0-48.386-48.386c-.476,0-.953.008-1.425.022v-.006a1.392,1.392,0,0,1-1.392-1.392,1.392,1.392,0,0,1,1.392-1.392v0c.473-.013.949-.021,1.425-.021Zm-30.28,36.293a1.392,1.392,0,0,0-1.392,1.392,1.391,1.391,0,0,0,.869,1.29l32.2,14.344-.041-43.915,0-.1a1.391,1.391,0,0,0-1.392-1.392,1.392,1.392,0,0,0-1.39,1.392h0l.037,39.729-28.278-12.6a1.377,1.377,0,0,0-.61-.141Zm-11.957-8.166a5.075,5.075,0,0,0-3.6-1.492,5.075,5.075,0,0,0-3.6,1.492,5.082,5.082,0,0,0-1.493,3.6,5.083,5.083,0,0,0,1.493,3.6,5.075,5.075,0,0,0,3.6,1.492,5.075,5.075,0,0,0,3.6-1.492,5.075,5.075,0,0,0,1.492-3.6A5.074,5.074,0,0,0-405.419,1699.343Z" transform="translate(1829.909 4821.784)" fill="#40f" fill-rule="evenodd"/>
    <circle id="Эллипс_54" data-name="Эллипс 54" cx="6.5" cy="6.5" r="6.5" transform="translate(1414 6518)" fill="#40f"/>
  </g>
</svg>
