<svg xmlns="http://www.w3.org/2000/svg" width="136.093" height="129.604" viewBox="0 0 136.093 129.604">
  <g id="Сгруппировать_2172" data-name="Сгруппировать 2172" transform="translate(-1147.37 -6524.756)">
    <path id="Контур_158" data-name="Контур 158" d="M-476.181,3675.445a9.956,9.956,0,0,1,7.053,2.924l.008.007a9.965,9.965,0,0,1,2.924,7.055,9.961,9.961,0,0,1-2.924,7.056l-.008.008a10.052,10.052,0,0,1-2.387,1.765l7.656,23.405a1.757,1.757,0,0,1-2.809,1.874l-39.833-29.057-39.942,29.137a1.75,1.75,0,0,1-2.691-1.953l15.364-46.993-40.054-28.982a1.757,1.757,0,0,1,1.155-3.169l49.316.094,15.186-47.047a1.754,1.754,0,0,1,3.335,0l15.186,47.047,49.443-.094a1.753,1.753,0,0,1,1.027,3.167l-32.539,23.548-.006-.009a1.723,1.723,0,0,1-1.029.336,1.744,1.744,0,0,1-1.743-1.744,1.736,1.736,0,0,1,.712-1.4l-.006-.008,28.162-20.378-45.213.087a1.755,1.755,0,0,1-1.748-1.214l-13.911-43.1-13.913,43.1a1.753,1.753,0,0,1-1.666,1.214l-45.295-.087,36.693,26.549a1.753,1.753,0,0,1,.64,1.964l-14.08,43.052,36.569-26.677a1.748,1.748,0,0,1,2.079-.016l36.595,26.692-5.975-18.266a10.138,10.138,0,0,1-1.328.087,9.954,9.954,0,0,1-7.055-2.924l-.008-.008a9.961,9.961,0,0,1-2.924-7.056,9.965,9.965,0,0,1,2.924-7.055l.008-.007a9.954,9.954,0,0,1,7.055-2.924Zm4.578,5.4a6.453,6.453,0,0,0-4.578-1.892,6.455,6.455,0,0,0-4.58,1.892l-.006.007a6.458,6.458,0,0,0-1.889,4.577,6.463,6.463,0,0,0,1.889,4.581l.006.006a6.462,6.462,0,0,0,4.58,1.889,6.461,6.461,0,0,0,4.578-1.889l.007-.006a6.463,6.463,0,0,0,1.889-4.581,6.458,6.458,0,0,0-1.889-4.577Z" transform="translate(1721.921 2934.397)" fill="#40f" fill-rule="evenodd"/>
    <circle id="Эллипс_78" data-name="Эллипс 78" cx="7.5" cy="7.5" r="7.5" transform="translate(1238 6612)" fill="#40f"/>
  </g>
</svg>
