<svg xmlns="http://www.w3.org/2000/svg" width="131.117" height="104.207" viewBox="0 0 131.117 104.207">
  <g id="Сгруппировать_2155" data-name="Сгруппировать 2155" transform="translate(-894 -6772)">
    <path id="Контур_94" data-name="Контур 94" d="M-629.476,1827.921c19.226-6.231,38.357-6.342,56.8,2.544l.791.382v3.711a18.3,18.3,0,0,1,7.97,4.751l0,75.026c.074,3.581-1.68,5.933-5.349,6.266-3.629.313-7.578.5-11.72.6a7.88,7.88,0,0,1-2.19,4.174,7.88,7.88,0,0,1-5.59,2.317,7.873,7.873,0,0,1-5.585-2.317l-.005-.006a7.875,7.875,0,0,1-2.317-5.585,7.879,7.879,0,0,1,2.317-5.591,7.879,7.879,0,0,1,5.59-2.317,7.886,7.886,0,0,1,5.585,2.317l.006.006a7.91,7.91,0,0,1,2.079,3.66l11.639-.037c2.155-.216,2.8-1.379,2.76-3.443l.385-73.533a15.339,15.339,0,0,0-5.572-3.357V1910.7l-1.87-.679a79.91,79.91,0,0,0-27.425-4.973,82.031,82.031,0,0,0-26.9,4.653v.988a1.392,1.392,0,0,1-1.4,1.386,1.391,1.391,0,0,1-1.4-1.386v-.988a82.05,82.05,0,0,0-26.9-4.653,79.928,79.928,0,0,0-27.427,4.973l-1.869.679v-73.211a15.331,15.331,0,0,0-5.574,3.357l.385,73.533c-.045,2.064.607,3.227,2.762,3.443l60.013.194v2.782c-18.2-.06-42.8,1.286-60.207-.2-3.668-.333-5.425-2.684-5.349-6.266l0-75.026a18.283,18.283,0,0,1,7.971-4.751v-3.711l.789-.382c18.441-8.886,37.572-8.775,56.8-2.544Zm7.783,16.371h0l.022-.01a46.016,46.016,0,0,1,20.112-4.829,48.472,48.472,0,0,1,20.573,4.662l0,0a1.38,1.38,0,0,0,.583.129,1.389,1.389,0,0,0,1.388-1.39,1.387,1.387,0,0,0-.808-1.262l0,0a51.226,51.226,0,0,0-21.749-4.911,48.769,48.769,0,0,0-21.338,5.119l-.008,0v0a1.387,1.387,0,0,0-.778,1.249,1.388,1.388,0,0,0,1.388,1.388,1.371,1.371,0,0,0,.61-.141Zm0,16.9h0l.022-.009a46.02,46.02,0,0,1,20.112-4.829,48.475,48.475,0,0,1,20.573,4.662l0,0a1.384,1.384,0,0,0,.583.128,1.389,1.389,0,0,0,1.388-1.39,1.39,1.39,0,0,0-.808-1.262l0,0a51.231,51.231,0,0,0-21.751-4.911,48.773,48.773,0,0,0-21.336,5.12l-.008,0h0a1.388,1.388,0,0,0-.778,1.249,1.388,1.388,0,0,0,1.388,1.388,1.368,1.368,0,0,0,.61-.142Zm0,16.53h0l.022-.011a46.043,46.043,0,0,1,20.113-4.827,48.465,48.465,0,0,1,20.571,4.66l0,0a1.383,1.383,0,0,0,.583.126,1.388,1.388,0,0,0,1.388-1.388,1.385,1.385,0,0,0-.808-1.262l0,0a51.207,51.207,0,0,0-21.749-4.913,48.8,48.8,0,0,0-21.338,5.12l-.008,0v0a1.387,1.387,0,0,0-.778,1.249,1.388,1.388,0,0,0,1.388,1.388,1.4,1.4,0,0,0,.61-.141Zm0,16.3h0l.022-.011a46.047,46.047,0,0,1,20.113-4.828,48.467,48.467,0,0,1,20.571,4.66l0,0a1.379,1.379,0,0,0,.583.127,1.388,1.388,0,0,0,1.388-1.388,1.385,1.385,0,0,0-.808-1.262l0,0a51.225,51.225,0,0,0-21.749-4.913,48.8,48.8,0,0,0-21.338,5.12l-.008,0h0a1.391,1.391,0,0,0-.778,1.249,1.389,1.389,0,0,0,1.388,1.39,1.394,1.394,0,0,0,.61-.141Zm-18.15-42.7-12.7-12.018a1.383,1.383,0,0,0-1-.43,1.392,1.392,0,0,0-1.4,1.386l-.266,36.371c-.236-.21-.484-.409-.746-.6a13.436,13.436,0,0,0-7.872-2.406,13.439,13.439,0,0,0-7.872,2.406,7.827,7.827,0,0,0-3.491,6.273,7.822,7.822,0,0,0,3.491,6.271,13.427,13.427,0,0,0,7.872,2.406,13.424,13.424,0,0,0,7.872-2.406,7.819,7.819,0,0,0,3.493-6.271l0-.227.281-38.606,10.431,9.867a1.387,1.387,0,0,0,1,.422,1.39,1.39,0,0,0,1.39-1.39,1.389,1.389,0,0,0-.476-1.048Zm29.672,66.64v-.006l-19.3.062v2.782c5.9-.019,12.5.11,19.3.244v-.008a1.535,1.535,0,0,0,1.537-1.537,1.536,1.536,0,0,0-1.537-1.537Zm-47.431-39.686a10.625,10.625,0,0,0-6.225-1.861,10.617,10.617,0,0,0-6.225,1.861,5.113,5.113,0,0,0-2.347,4.027,5.109,5.109,0,0,0,2.347,4.025,10.616,10.616,0,0,0,6.225,1.861,10.611,10.611,0,0,0,6.225-1.861,5.111,5.111,0,0,0,2.349-4.025,5.115,5.115,0,0,0-2.349-4.027Zm72.45,37.886a5.1,5.1,0,0,0-3.618-1.492,5.105,5.105,0,0,0-3.618,1.5,5.109,5.109,0,0,0-1.5,3.618,5.11,5.11,0,0,0,1.5,3.619,5.109,5.109,0,0,0,3.62,1.5,5.105,5.105,0,0,0,3.618-1.5,5.1,5.1,0,0,0,1.5-3.616,5.1,5.1,0,0,0-1.493-3.618l-.005-.006Zm-45.719-9.4V1830.4c-18.072-5.745-36.006-5.922-53.4,2.2v74.151a82.194,82.194,0,0,1,26.5-4.479,84.482,84.482,0,0,1,26.9,4.49Zm30.031-80.456a81.07,81.07,0,0,0-27.239,4.094v76.362a84.462,84.462,0,0,1,26.9-4.49,82.194,82.194,0,0,1,26.5,4.479V1832.6A66.262,66.262,0,0,0-600.841,1826.3Z" transform="translate(1589.035 4948.512)" fill="#40f" fill-rule="evenodd"/>
    <circle id="Эллипс_56" data-name="Эллипс 56" cx="6.5" cy="6.5" r="6.5" transform="translate(994 6862)" fill="#40f"/>
    <ellipse id="Эллипс_57" data-name="Эллипс 57" cx="10" cy="6.5" rx="10" ry="6.5" transform="translate(915 6824)" fill="#40f"/>
  </g>
</svg>
