<svg xmlns="http://www.w3.org/2000/svg" width="102.728" height="102.729" viewBox="0 0 102.728 102.729">
  <g id="Сгруппировать_2158" data-name="Сгруппировать 2158" transform="translate(-409 -6773)">
    <path id="Контур_89" data-name="Контур 89" d="M-901.046,1822.168a51.363,51.363,0,0,1,51.363,51.363,51.364,51.364,0,0,1-51.363,51.365,51.364,51.364,0,0,1-51.365-51.365,51.428,51.428,0,0,1,1.829-13.637h0a1.4,1.4,0,0,1,1.351-1.046,1.4,1.4,0,0,1,1.4,1.4,1.5,1.5,0,0,1-.034.307h0l-.013.041-.007.034a48.564,48.564,0,0,0-1.734,12.906,48.574,48.574,0,0,0,48.574,48.574,48.573,48.573,0,0,0,48.572-48.574,48.573,48.573,0,0,0-48.572-48.572,48.393,48.393,0,0,0-31.382,11.5,7.86,7.86,0,0,1,1.539,4.68,7.882,7.882,0,0,1-2.317,5.59,7.877,7.877,0,0,1-5.59,2.315,7.874,7.874,0,0,1-5.585-2.315l-.005-.005a7.876,7.876,0,0,1-2.317-5.585,7.887,7.887,0,0,1,2.317-5.592,7.888,7.888,0,0,1,5.59-2.315,7.867,7.867,0,0,1,4.332,1.3,51.164,51.164,0,0,1,33.418-12.357Zm-10.38,80.028c4.511-8.992,15.221-8.516,19.974.061a1.393,1.393,0,0,0,1.252.782,1.4,1.4,0,0,0,1.4-1.4,1.387,1.387,0,0,0-.225-.758c-5.84-10.511-19.354-10.915-24.874.033a1.411,1.411,0,0,0-.2.724,1.4,1.4,0,0,0,1.4,1.4,1.394,1.394,0,0,0,1.282-.843Zm42.756-24.787a26.765,26.765,0,0,0-19.09-6.271h-.039a1.394,1.394,0,0,0-1.4,1.4,1.393,1.393,0,0,0,1.4,1.394,1.452,1.452,0,0,0,.153-.007,24.066,24.066,0,0,1,17.184,5.618,1.389,1.389,0,0,0,.97.393,1.4,1.4,0,0,0,1.4-1.4,1.388,1.388,0,0,0-.573-1.126Zm-45.239-6.271h-.043a26.763,26.763,0,0,0-19.088,6.271,1.386,1.386,0,0,0-.571,1.126,1.4,1.4,0,0,0,1.394,1.4,1.385,1.385,0,0,0,.97-.393,24.07,24.07,0,0,1,17.186-5.618,1.43,1.43,0,0,0,.153.007,1.4,1.4,0,0,0,1.4-1.394,1.4,1.4,0,0,0-1.4-1.4Zm-21.269-33.625a5.1,5.1,0,0,0-3.618-1.492,5.1,5.1,0,0,0-3.616,1.5,5.1,5.1,0,0,0-1.5,3.618,5.109,5.109,0,0,0,1.495,3.62,5.108,5.108,0,0,0,3.62,1.494,5.1,5.1,0,0,0,3.618-1.5,5.1,5.1,0,0,0,1.5-3.616,5.1,5.1,0,0,0-1.492-3.618Z" transform="translate(1361.411 4950.832)" fill="#40f" fill-rule="evenodd"/>
    <circle id="Эллипс_58" data-name="Эллипс 58" cx="6.5" cy="6.5" r="6.5" transform="translate(416 6786)" fill="#40f"/>
  </g>
</svg>
