<svg xmlns="http://www.w3.org/2000/svg" width="169.089" height="125.784" viewBox="0 0 169.089 125.784">
  <g id="Сгруппировать_2168" data-name="Сгруппировать 2168" transform="translate(-1130.871 -5878.165)">
    <path id="Контур_161" data-name="Контур 161" d="M-489.339,3325.509a9.1,9.1,0,0,1,6.445,2.672l.006.008a9.1,9.1,0,0,1,2.674,6.443,9.1,9.1,0,0,1-2.674,6.445l-.006.007a9.089,9.089,0,0,1-6.445,2.674,9.088,9.088,0,0,1-6.445-2.674l-.006-.007a9.1,9.1,0,0,1-2.674-6.445,9.1,9.1,0,0,1,2.674-6.443l.006-.008a9.2,9.2,0,0,1,3.115-2.043c-.045-5.277,2.357-10.03,4.826-14.6a95.568,95.568,0,0,0,28.919-16.684,116.454,116.454,0,0,0,21.328-22.784,31.358,31.358,0,0,1-4.184-5.264,32.619,32.619,0,0,1-2.892-5.774c-7.652,3.877-13.825,10.009-19.336,15.486-8.914,8.856-16.228,16.118-25.792,10.978q-8.744,6.728-17.124,13.939-8.77,7.586-17.056,15.886l-.006.012c-3.932,3.885-7.252,7.7-10.193,11.079-6.745,7.75-11.611,13.335-17.774,12.931l-.131-.012a21.111,21.111,0,0,1-10.416-4.2,14.871,14.871,0,0,1-5.412-10.112,24.223,24.223,0,0,1,1.951-11.887,34.529,34.529,0,0,1,9.84-13.255,223.679,223.679,0,0,1-12.985-20.82,255.659,255.659,0,0,1-11.425-23.59,11.82,11.82,0,0,1-1-2.058c-2.069-5.594.342-12.146,5.913-18.218,5.32-5.8,13.594-11.233,23.556-14.916s19.77-4.944,27.583-4c8.18.984,14.277,4.4,16.347,10,.086.231.163.464.233.7l14.7,37.377c4.206-2.7,7.866-3.42,10.5-2.719a5.981,5.981,0,0,1,3.581,2.55,7.34,7.34,0,0,1,1.048,4.437c-.214,3.908-2.9,9.2-8.972,14.616,7.036,2.67,13.269-3.521,20.771-10.974,6.445-6.4,13.766-13.675,23.454-17.575a60.234,60.234,0,0,0,17.4-12.82c1.876-1.874,4.847-4,7.669-3.3,3.029.749,4.2,4.081,4.482,6.86.488,4.778-1.174,10.905-5.166,13.879a99.8,99.8,0,0,0-14.467,9.562c-12.009,18.33-31.942,35.827-52.718,43.291-2.526,4.765-3.647,8.085-3.752,11.361Zm-4.146-47.87a1.6,1.6,0,0,1-1.191.531,1.6,1.6,0,0,1-1.6-1.6,1.59,1.59,0,0,1,.53-1.189l8.349-8.351a19.8,19.8,0,0,0-5.538,3.037c-3.851,3.477-7.846,6.957-12.037,10.44q-3.873,3.218-7.911,6.378a17.417,17.417,0,0,0,2.7,5.528,15.179,15.179,0,0,0,4.325,3.908q7.348-6.2,14.944-12c5.04-4.062,7.9-7.964,9.053-11.141l-8.469,8.452a1.6,1.6,0,0,1-1.192.529,1.6,1.6,0,0,1-1.6-1.6,1.6,1.6,0,0,1,.531-1.194l11.025-11a3.135,3.135,0,0,0-.244-.462,2.668,2.668,0,0,0-1.022-.922l-10.653,10.657Zm-62.744,40.894a1.94,1.94,0,0,1-.154.161l0,0a1.6,1.6,0,0,1-1.068.406,1.6,1.6,0,0,1-1.6-1.6,1.6,1.6,0,0,1,.379-1.033l0,0,.041-.041.026-.028.028-.028h0c3.607-3.715,7.34-7.245,11.224-10.545q-.661-.039-1.309-.129a16.273,16.273,0,0,1-5.113-1.588,31.221,31.221,0,0,0-9.222,12.243,21.094,21.094,0,0,0-1.724,10.309,11.737,11.737,0,0,0,4.246,7.991,17.948,17.948,0,0,0,8.8,3.5c4.559.246,8.974-4.824,15.083-11.842,2.984-3.427,6.351-7.295,10.356-11.256q8.352-8.4,17.227-16.035l.612-.529a18.214,18.214,0,0,1-4.347-4.163,20.06,20.06,0,0,1-2.824-5.367q-1.165.889-2.347,1.776l-.146.109-.16.072a107.879,107.879,0,0,0-20.273,11.946,146.245,146.245,0,0,0-17.727,15.669Zm120.48-49.154.469-.711a104.006,104.006,0,0,1,15.173-10.108c2.826-2.2,4.049-7.063,3.667-10.83-.124-1.216-.635-3.712-2.062-4.065-1-.246-2.509.4-4.6,2.419a63.482,63.482,0,0,1-18.311,13.481l-.107.045-.229.092a29.466,29.466,0,0,0,2.68,5.4,28.132,28.132,0,0,0,3.324,4.275Zm-83.945,18.692c4.387-3.292,8.6-6.637,12.675-10.024q5.683-4.723,11.179-9.679l-12.328-31.334a26.471,26.471,0,0,1-5.874,9.455c-5.322,5.8-13.594,11.231-23.556,14.917s-19.77,4.943-27.582,4a27.7,27.7,0,0,1-9.588-2.774q3.934,8.634,8.471,16.884a220.62,220.62,0,0,0,13.46,21.465,13.1,13.1,0,0,0,4.593,1.542l.338.041c3.666.383,15.158-8.137,28.213-14.493Zm-5.8-16.938c-7.365-4.03-11.269,3.337-5.577,6.927-9.109,10.379,6.268,19.684,11.534,5.68,6.118,1.974,13.761-5.194.9-10.6,1.352-6.7-3.566-9.583-6.856-2.009Zm-27.294,9.074c-5.9-4.581-9.064,1.329-3.048,6.1-1.94,11.417,1.974,12.619,7.378,8.069,8.428,3.233,18-5.275,4.086-10.25,3.444-10.185-4.92-11.1-8.415-3.916Zm1.829-54.922c-9.476,3.506-17.306,8.629-22.3,14.075-4.749,5.177-6.877,10.57-5.258,14.946s6.74,7.079,13.714,7.917c7.344.884,16.626-.323,26.1-3.829s17.306-8.628,22.3-14.076c4.751-5.174,6.879-10.569,5.26-14.946s-6.741-7.076-13.716-7.915c-7.342-.886-16.623.321-26.1,3.827Zm65.8,105.159a5.9,5.9,0,0,0-4.182-1.727,5.892,5.892,0,0,0-4.182,1.727l-.006.006a5.889,5.889,0,0,0-1.726,4.182,5.893,5.893,0,0,0,1.726,4.184l.006.007a5.892,5.892,0,0,0,4.182,1.726,5.9,5.9,0,0,0,4.182-1.726l.009-.007a5.9,5.9,0,0,0,1.726-4.184,5.9,5.9,0,0,0-1.726-4.182Z" transform="translate(1713.135 2660.19)" fill="#40f" fill-rule="evenodd"/>
    <circle id="Эллипс_74" data-name="Эллипс 74" cx="7.5" cy="7.5" r="7.5" transform="translate(1216 5987)" fill="#40f"/>
  </g>
</svg>
