<svg xmlns="http://www.w3.org/2000/svg" width="194.166" height="116.018" viewBox="0 0 194.166 116.018">
  <g id="Сгруппировать_2173" data-name="Сгруппировать 2173" transform="translate(-603.198 -6536.735)">
    <path id="Контур_159" data-name="Контур 159" d="M-825.728,3678.045a1.6,1.6,0,0,1-1.6,1.6,1.6,1.6,0,0,1-1.6-1.6h0l.006-12.726c.351-6.313,4.721-11.216,10.623-13.124l17.8-4.8a19.484,19.484,0,0,1-12.358-18.133,19.477,19.477,0,0,1,19.477-19.476,19.477,19.477,0,0,1,19.477,19.476,19.483,19.483,0,0,1-12.356,18.133l17.667,4.766a1.606,1.606,0,0,1,1.243,1.562,1.605,1.605,0,0,1-1.6,1.6,1.612,1.612,0,0,1-.477-.072l-23.95-6.46-24.014,6.477c-4.565,1.5-8.011,5.228-8.322,10.14v12.638Zm94.4,27.912h-.006l-6.569-10.14,6.173-25.075-.006,0a1.593,1.593,0,0,0,.047-.38,1.6,1.6,0,0,0-1.594-1.594,1.6,1.6,0,0,0-1.549,1.213h-.006l-6.338,25.744a1.6,1.6,0,0,0,.235,1.29l7.737,11.941a2.084,2.084,0,0,0,1.876,1.174,2.081,2.081,0,0,0,1.874-1.174l7.737-11.941a1.6,1.6,0,0,0,.237-1.29l-8-32.474,9.921-5.215,24.6,6.638c7.365,2.413,12.9,8.435,13.381,16.345v11.31a9.9,9.9,0,0,0-5.254,2.747l-.006.008a9.876,9.876,0,0,0-2.9,7,9.867,9.867,0,0,0,2.9,6.993l.006.009a9.872,9.872,0,0,0,7,2.9,9.872,9.872,0,0,0,6.995-2.9l.006-.009a9.867,9.867,0,0,0,2.9-6.993,9.876,9.876,0,0,0-2.9-7l-.006-.008a9.9,9.9,0,0,0-5.258-2.747l0-11.4c-.526-9.434-7.063-16.732-15.877-19.584l-29.711-8.02a29.315,29.315,0,0,0,20.812-28.055,29.307,29.307,0,0,0-27.563-29.253v-.051h-3.483v.051a29.3,29.3,0,0,0-27.563,29.253,29.318,29.318,0,0,0,20.812,28.055l-29.711,8.02c-8.815,2.852-15.35,10.15-15.877,19.584l-.006,19.589h0a1.74,1.74,0,0,0,1.741,1.739,1.741,1.741,0,0,0,1.739-1.739l0-19.495c.481-7.911,6.015-13.933,13.383-16.345l37.224-10.043,8.073,2.18-7.973,4.19a1.6,1.6,0,0,0-.8,1.842l8.12,32.977-6.569,10.14Zm.894-106.456a25.821,25.821,0,0,1,24.081,25.762,25.822,25.822,0,0,1-24.081,25.764h-3.483A25.822,25.822,0,0,1-758,3625.263a25.819,25.819,0,0,1,24.08-25.762Zm55.143,98.026.006.007a6.4,6.4,0,0,1,1.874,4.541,6.4,6.4,0,0,1-1.874,4.539l-.006.007a6.4,6.4,0,0,1-4.539,1.874,6.4,6.4,0,0,1-4.539-1.874l-.006-.007a6.4,6.4,0,0,1-1.874-4.539,6.4,6.4,0,0,1,1.874-4.541l.006-.007a6.4,6.4,0,0,1,4.539-1.874,6.4,6.4,0,0,1,4.539,1.874Zm-18.976-42.277a1.613,1.613,0,0,1-.477.072,1.6,1.6,0,0,1-1.6-1.6,1.606,1.606,0,0,1,1.241-1.562l17.669-4.766a19.482,19.482,0,0,1-12.358-18.133,19.477,19.477,0,0,1,19.477-19.476,19.477,19.477,0,0,1,19.477,19.476,19.481,19.481,0,0,1-12.358,18.133l17.8,4.8c5.9,1.908,10.27,6.811,10.621,13.124l.006,12.726h0a1.6,1.6,0,0,1-1.6,1.6,1.6,1.6,0,0,1-1.6-1.6h0v-12.638c-.31-4.912-3.756-8.636-8.321-10.14l-24.014-6.477-23.95,6.46Zm23.95-42.26a16.269,16.269,0,0,1,16.268,16.267,16.269,16.269,0,0,1-16.268,16.268,16.267,16.267,0,0,1-16.266-16.268,16.268,16.268,0,0,1,16.266-16.267Zm-111.574,4.764a16.213,16.213,0,0,0-11.5-4.764,16.27,16.27,0,0,0-16.268,16.267,16.268,16.268,0,0,0,16.268,16.268,16.269,16.269,0,0,0,16.268-16.268A16.217,16.217,0,0,0-781.89,3617.755Z" transform="translate(1432.135 2940.776)" fill="#40f" fill-rule="evenodd"/>
    <circle id="Эллипс_79" data-name="Эллипс 79" cx="7.5" cy="7.5" r="7.5" transform="translate(745 6635)" fill="#40f"/>
  </g>
</svg>
