<svg xmlns="http://www.w3.org/2000/svg" width="240.538" height="112.352" viewBox="0 0 240.538 112.352">
  <g id="Сгруппировать_2169" data-name="Сгруппировать 2169" transform="translate(-857.326 -6203.176)">
    <path id="Контур_162" data-name="Контур 162" d="M-566.456,3497.694a9.1,9.1,0,0,1,6.445,2.671l.006.009a9.094,9.094,0,0,1,2.672,6.443l0,.216c17.967,3.568,36.056,6.509,54.245,8.67l.043.005a102.484,102.484,0,0,0,31.548-1.047v0a1.6,1.6,0,0,1,1.9,1.568,1.6,1.6,0,0,1-1.3,1.57h0a105.815,105.815,0,0,1-32.52,1.085l-.049,0c-18.266-2.168-36.462-5.117-54.506-8.71a9.165,9.165,0,0,1-2.032,3.089l-.006.007a9.1,9.1,0,0,1-6.445,2.671,9.1,9.1,0,0,1-6.445-2.671l-.006-.007a9.106,9.106,0,0,1-2.674-6.448c0-.114,0-.229.006-.344q-17.019-3.774-33.949-8.217a72.517,72.517,0,0,1-34.721-3.975c-14.536.306-26.932-.1-36.853-1.329-10.172-1.26-17.851-3.4-22.7-6.544-4.011-2.817-7.474-6.094-6-11.432,1.119-4.043,5.222-8.738,12.679-14.987l.137-.1c9.357-7.358,17.789-10.022,29.67-8.967h0a1.6,1.6,0,0,1,1.459,1.591,1.6,1.6,0,0,1-1.735,1.592h0c-10.1-.894-17.526,1.031-25.717,7,.49,1.543.92,1.029-1.367,2.875-2.158,1.741-2.642,1.825-3.354,1.021-5.07,4.528-7.9,7.983-8.687,10.824-.8,2.881.834,5.3,4.621,7.876,5.891,3.722,14.563,5.219,21.377,6.062,9.885,1.224,22.237,1.624,36.719,1.311l.6.1a69.325,69.325,0,0,0,33.767,3.857,1.581,1.581,0,0,1,.712.073q16.926,4.427,34.017,8.232a9.179,9.179,0,0,1,1.985-2.968l.006-.009a9.1,9.1,0,0,1,6.445-2.671Zm-11.151-1.848v0l-10.792-2.873a34.028,34.028,0,0,0,11.75-7.021l19.6,4.678,0-.006a1.434,1.434,0,0,0,1.763-1.393,1.434,1.434,0,0,0-1.1-1.4v-.007l-20.333-4.854a1.442,1.442,0,0,0-1.377.411,30.038,30.038,0,0,1-16.343,8.095,1.438,1.438,0,0,0-.118,2.822l16.223,4.316h0a1.434,1.434,0,0,0,1.8-1.386,1.43,1.43,0,0,0-1.067-1.384Zm-72.755-24.8a1.6,1.6,0,0,0-1.6,1.6,1.6,1.6,0,0,0,1.418,1.588l0,0,64.9,7.62v0a1.747,1.747,0,0,0,.182.009,1.6,1.6,0,0,0,1.6-1.6,1.6,1.6,0,0,0-1.418-1.589v0l-64.9-7.62v0c-.06-.006-.12-.01-.182-.01Zm-18.416-26.145,0,0c-1.176-2.883-1.391-2.992-3.117-6.56-1.913-3.956-3.936-8.134-5.545-12.105-2.039-5.04-3.4-9.648-2.854-12.658,1.788,10.431,14.893,26.693,24.072,38.08,1.249,1.548,2.424,3.005,3.545,4.415a1.6,1.6,0,0,0,.984.583q33.708,5.856,66.879,14.455a1.6,1.6,0,0,0,1.517-.4,205.928,205.928,0,0,0,20.063-23.446l.073-.092-14.322,26.761a1.6,1.6,0,0,0,.4,1.991,9.834,9.834,0,0,1,3.016,3.915l0,0a1.6,1.6,0,0,0,1.508,1.072,1.6,1.6,0,0,0,1.508-2.122h0a12.062,12.062,0,0,0-3.023-4.46l16.031-29.956a1.6,1.6,0,0,0-.862-2.375c-2.839-.927-5.23,1.338-6.895,3.337a206.914,206.914,0,0,1-19.094,22.455q-32.536-8.417-65.664-14.185l-3.177-3.952c-10.45-12.965-26.217-32.527-23.28-40.132a1.6,1.6,0,0,0-2.086-2.088c-6.539,2.646-5.042,10.805-1.316,20.01,1.619,4,3.682,8.262,5.632,12.291,1.686,3.488,1.863,3.523,3.027,6.375l.006,0a1.6,1.6,0,0,0,1.48,1,1.6,1.6,0,0,0,1.48-2.2Zm-27.022,21.4c.609.989,4.188,2.214,5.844,2.37,1.241.119,1.838-.823,2.456-1.505.8-.884,1.581-1.294,1.825-2.638-.978-.366-5.051-1.758-5.987-1.715-.747.034-.595.128-1.177.647-.941.843-2.655,2.041-2.96,2.841Zm16.078,4.682a8.768,8.768,0,0,0-.338-3.148c-.327-1.345-.841-1.229-2.009-1.743-2.361-1.035-1.919-1.265-4.43,1.375-1.825,1.919-1.641,1.816,1.53,3.406,2.088,1.045,2.8,1.565,5.247.11Zm117.449,31.641a5.9,5.9,0,0,0-4.182-1.726,5.893,5.893,0,0,0-4.182,1.726l-.009.007a5.9,5.9,0,0,0-1.726,4.182,5.9,5.9,0,0,0,1.726,4.184l.009.006a5.893,5.893,0,0,0,4.182,1.727,5.9,5.9,0,0,0,4.182-1.727l.006-.006a5.888,5.888,0,0,0,1.726-4.184,5.888,5.888,0,0,0-1.726-4.182Z" transform="translate(1567.465 2795.87)" fill="#40f" fill-rule="evenodd"/>
    <circle id="Эллипс_76" data-name="Эллипс 76" cx="7.5" cy="7.5" r="7.5" transform="translate(994 6295)" fill="#40f"/>
  </g>
</svg>
