<svg xmlns="http://www.w3.org/2000/svg" width="51.029" height="51.029" viewBox="0 0 51.029 51.029">
  <g id="Сгруппировать_74" data-name="Сгруппировать 74" transform="translate(0.5 0.5)">
    <ellipse id="Эллипс_22" data-name="Эллипс 22" cx="25.014" cy="25.014" rx="25.014" ry="25.014" transform="translate(0 0)" fill="#e5e5e5" stroke="#cbcbcb" stroke-miterlimit="22.926" stroke-width="1"/>
    <g id="Сгруппировать_1955" data-name="Сгруппировать 1955" transform="translate(8.337 6.968)">
      <path id="Контур_1400" data-name="Контур 1400" d="M-328.078,5374.508a7.794,7.794,0,0,1,2.7,2.768,7.817,7.817,0,0,1,1.045,3.643l0,10.649a7.79,7.79,0,0,1-1.047,3.754,7.785,7.785,0,0,1-3.595,3.235l-7.434,4.293a7.8,7.8,0,0,1-4.6,1.5,7.793,7.793,0,0,1-4.636-1.522l-7.354-4.247a7.8,7.8,0,0,1-3.637-3.254,7.787,7.787,0,0,1-1.045-4.152v-9.741c-.005-.168-.005-.337,0-.506v0h0a7.8,7.8,0,0,1,1.045-3.643,7.779,7.779,0,0,1,2.707-2.771l9.224-5.323a7.775,7.775,0,0,1,3.7-.929,7.792,7.792,0,0,1,3.706.932l9.224,5.324Zm-15.559,24.25a3.963,3.963,0,0,0,1.13-.81l11.751-12.034a3.948,3.948,0,0,0-.067-5.583,3.958,3.958,0,0,0-1.593-.949l0-.015-12.146-3.083a4.907,4.907,0,0,0-2.416,1.361,4.942,4.942,0,0,0-1.119,5.115h0Z" transform="translate(357.684 -5368.252)" fill="#fff" fill-rule="evenodd"/>
      <path id="Контур_1401" data-name="Контур 1401" d="M-345.382,5395.617a3.946,3.946,0,0,1-4.473-.731,3.924,3.924,0,0,1-.926-1.406l-.061-.012-4.541-16.271h0a3.946,3.946,0,0,1,.893-4.085,3.947,3.947,0,0,1,3.963-1.022h0l16.343,4.147-12.146-3.083a4.907,4.907,0,0,0-2.416,1.361,4.942,4.942,0,0,0-1.119,5.115h0l4.464,16Z" transform="translate(359.45 -5365.122)" fill="#cbcbcb" fill-rule="evenodd"/>
    </g>
  </g>
</svg>
