<svg xmlns="http://www.w3.org/2000/svg" width="2100.232" height="2160.946" viewBox="0 0 2100.232 2160.946">
  <g id="Сгруппировать_2180" data-name="Сгруппировать 2180" transform="translate(73.512 -8588.054)">
    <circle id="Эллипс_59" data-name="Эллипс 59" cx="27.5" cy="27.5" r="27.5" transform="translate(1710 9967)" fill="#00bbce"/>
    <circle id="Эллипс_60" data-name="Эллипс 60" cx="52.5" cy="52.5" r="52.5" transform="translate(123 10575)" fill="#00bbce"/>
    <path id="Многоугольник_3" data-name="Многоугольник 3" d="M63.177,53.86c11.994-22.808,44.651-22.808,56.645,0l38.518,73.247A32,32,0,0,1,130.018,174H52.982A32,32,0,0,1,24.66,127.106Z" transform="translate(70.74 9188.701) rotate(56)" fill="#00bbce"/>
    <path id="Многоугольник_4" data-name="Многоугольник 4" d="M63.177,53.86c11.994-22.808,44.651-22.808,56.645,0l38.518,73.247A32,32,0,0,1,130.018,174H52.982A32,32,0,0,1,24.66,127.106Z" transform="translate(1738.488 8781.414) rotate(-56)" fill="#00bbce"/>
  </g>
</svg>
