<svg xmlns="http://www.w3.org/2000/svg" width="894.883" height="1665.474" viewBox="0 0 894.883 1665.474">
  <g id="Сгруппировать_2159" data-name="Сгруппировать 2159" transform="translate(-1402.954 -7569.526)">
    <path id="Контур_95" data-name="Контур 95" d="M-254.019,2740.761a19.125,19.125,0,0,0,19.088-19.087,19.124,19.124,0,0,0-19.088-19.088,19.124,19.124,0,0,0-19.088,19.088A19.125,19.125,0,0,0-254.019,2740.761Z" transform="translate(2155.705 6079.198)" fill="#cccece" fill-rule="evenodd"/>
    <path id="Контур_96" data-name="Контур 96" d="M-170.754,2562.521a19.123,19.123,0,0,0,19.088-19.086,19.124,19.124,0,0,0-19.088-19.088,19.126,19.126,0,0,0-19.088,19.088A19.125,19.125,0,0,0-170.754,2562.521Z" transform="translate(2351.505 5708.062)" fill="#cccece" fill-rule="evenodd"/>
    <path id="Контур_97" data-name="Контур 97" d="M-242.57,2435.541a19.125,19.125,0,0,0,19.088-19.087,19.125,19.125,0,0,0-19.088-19.087,19.123,19.123,0,0,0-19.088,19.087A19.123,19.123,0,0,0-242.57,2435.541Z" transform="translate(2181.26 5430.63)" fill="#cccece" fill-rule="evenodd"/>
    <path id="Контур_98" data-name="Контур 98" d="M-186.1,2834.7a30.6,30.6,0,0,0,30.543-30.542,30.6,30.6,0,0,0-30.543-30.541,30.6,30.6,0,0,0-30.54,30.541A30.6,30.6,0,0,0-186.1,2834.7Z" transform="translate(2283.589 6236.521)" fill="#cccece" fill-rule="evenodd"/>
    <path id="Контур_99" data-name="Контур 99" d="M-124.256,2690.806a30.541,30.541,0,0,1-30.54-30.54,30.542,30.542,0,0,1,30.54-30.544Z" transform="translate(2419.294 5928.19)" fill="#cccece" fill-rule="evenodd"/>
    <path id="Контур_100" data-name="Контур 100" d="M-147.329,2338.3a14.536,14.536,0,0,0,14.507-14.51,14.536,14.536,0,0,0-14.507-14.508,14.536,14.536,0,0,0-14.507,14.508A14.536,14.536,0,0,0-147.329,2338.3Z" transform="translate(2405.677 5260.246)" fill="#cccece" fill-rule="evenodd"/>
    <path id="Контур_101" data-name="Контур 101" d="M431.752,2317.2,117.03,2591.989l353.687,163.78-.824,1.635L118.626,2594.743l227.993,385.791L469.8,2906.482l1.007,1.534-123.348,74.153c41.569,112.8,83.9,225.43,125.913,338.087l-1.091.588L273.76,3762.9l197.083,130.916-1.075,1.49L273,3764.6l-1.062,2.362-2.607-3.1-690.837,202.442,496.061-433.84-1.355-1.611,4.209-2.271L343,2984.482l-.331-.893L110.68,2591.038l317.7-277.39,3.376,3.552Zm-163.7,1445.15q-96.173-114.224-192.31-228.473l-489.78,428.347,682.09-199.875Zm162.9-1432.018-1.773.641,40.243,102.174,1.773-.64L430.95,2330.331ZM80.24,3527.055l387-208.98L343.9,2986.906,80.24,3527.055ZM465.069,3324.74,80.8,3532.244l189.806,225.5Z" transform="translate(1824.463 5268.694)" fill="#cccece" fill-rule="evenodd"/>
  </g>
</svg>
