<svg xmlns="http://www.w3.org/2000/svg" width="144" height="144" viewBox="0 0 144 144">
  <g id="Сгруппировать_2180" data-name="Сгруппировать 2180" transform="translate(-1446 -10217)">
    <circle id="Эллипс_65" data-name="Эллипс 65" cx="72" cy="72" r="72" transform="translate(1446 10217)" fill="#fff"/>
    <g id="Сгруппировать_2164" data-name="Сгруппировать 2164" transform="translate(1470.104 10240.076)">
      <path id="Контур_1382" data-name="Контур 1382" d="M-363.18,4815.845c4.567,2.8,11.294,6.555,16.306,9.412,1.466.834,1.182.225,1.182,4.219l-.024,25.569c-.1.353.226.227-.186.219.188.467,1.785-.708,2.167-.934l11.176-6.434c.8-.444,1.44-.842,2.212-1.272.431-.237.7-.4,1.144-.668l1.258-.663c-.206-.112-.329.1-.322-.891l.018-6.437c0-6.729-.234-15.937.038-22.11l2.608-1.425.02-13.5c-.467.052-10.926,6.123-12.52,7.082l-7.46,4.289-10.122-5.747c-1.414-.907-3.73-2.077-5.052-2.914l-3.756-2.18c-.278-.156-.385-.192-.669-.35-.343-.195-.288-.024-.335-.417l-.2.038-.038,13.693A25.059,25.059,0,0,0-363.18,4815.845Z" transform="translate(393.143 -4757.805)" fill="#dcdcdc" fill-rule="evenodd"/>
      <path id="Контур_1383" data-name="Контур 1383" d="M-337.51,4801.966l.018,13.6c-.811.559-1.7.957-2.514,1.459s-1.52.888-2.368,1.4l-.054,29.611c.034-.027.082-.1.1-.074s.1-.074.192-.132l.723-.43c.393-.241.723-.424,1.06-.627l13.7-7.889c.475-.288.3-.1.487-.494v-29.324c.795-.608,3.466-2.042,4.439-2.647l.03-13.515Z" transform="translate(416.375 -4765.563)" fill="#dcdcdc" fill-rule="evenodd"/>
      <path id="Контур_1384" data-name="Контур 1384" d="M-379.337,4806.454l4.519,2.608-.032,29.449c.036.1,15.04,8.941,16.172,9.385l0-29.445-4.782-2.819c-.03-1.734-.194-12.979.068-13.654l.038-.1c-.693.072-3.417-1.7-4.169-2.134-1.358-.791-2.614-1.506-4-2.3-2.7-1.547-5.192-3-7.843-4.525Z" transform="translate(379.556 -4765.553)" fill="#cbcbcb" fill-rule="evenodd"/>
      <path id="Контур_1385" data-name="Контур 1385" d="M-343.5,4804.092c1.166-.61.817-.5,2.792-.663,4.6-.37,7.941-.351,11.841,2.117a5.886,5.886,0,0,1,2.925,4.227c.172,1.231.176,3.384-1.016,4.161-1.893,1.231-6.8-2.439-8.468-3.521a6.074,6.074,0,0,1-.545-.353l-3.674-2.616a25.818,25.818,0,0,1-3.62-3.068c-.044-.045-.216-.269-.234-.283Zm-.841-.253c-.24.218-.627.581-.863.851-.733.843-.423.375-.953.848a3.468,3.468,0,0,1-.473.432,3.739,3.739,0,0,0-.507.388l-3.057,2.343c-.721.492-1.462,1.05-2.214,1.519-2.378,1.475-8.005,5.968-9.489,3.017a6.548,6.548,0,0,1,.475-5.729,10.606,10.606,0,0,1,4.231-3.082,15.931,15.931,0,0,1,6.108-1.141,39.586,39.586,0,0,1,6.741.555Zm7.3-4.14c.7-1.374,1.655-2.643,2.418-3.847l3.321-4.525c.779-.973,2.965-3.163,4.255-3.573a2.561,2.561,0,0,1,2.434.291c2.322,2.2-2.716,7.234-4.521,8.537-.3.215-.553.455-.855.682-.825.625-3.021,2.329-3.977,2.361-1,.033-2.073.055-3.075.074Zm-13.326.1c-2.774.07-3.075-.072-5.01-1.329l-3.267-2.381c-.25-.224-.268-.208-.5-.4-.34-.282-.417-.465-.779-.761a7.8,7.8,0,0,1-.863-.808c-.154-.166-.208-.252-.355-.417l-1.184-1.385c-3.235-4.443-.377-6.958,3.642-3.771a4.05,4.05,0,0,1,.745.79l1.619,1.719a67.189,67.189,0,0,1,4.736,6.706c.4.613.841,1.542,1.214,2.039Zm-14.343-12.074c-.31,3.287,1.955,5.627,3.279,7.17.7.815,4.582,4.18,5.886,4.679a2.415,2.415,0,0,1-1.787.156c-.232.342-.94.326-1.671.542a15.751,15.751,0,0,0-5.745,3.005l-1.03,1.157a7.7,7.7,0,0,0-1.346,3.128c-.146,4.946.14,4.722,3.628,6.759,1.214.708,2.138,1.421,3.9,1.044,1.9-.41,5.16-2.616,6.751-3.788.533-.393.968-.659,1.49-1.082.549-.445,1.018-.79,1.538-1.165.262-.189.531-.4.731-.559l3.62-2.934c.286-.249.389-.283.7-.59a3.911,3.911,0,0,1,.7-.562,2.975,2.975,0,0,1,.679.583c1.508,1.427,8.095,6.341,9.547,7.3.565.373,1.066.673,1.647,1.051a13.067,13.067,0,0,0,3.472,1.663c1.843.481,2.754-.235,4.03-1.014.9-.549,2.652-1.443,3.093-2.177.986-1.641.333-3.762.591-4.4-.529-1.319-.375-1.834-1.268-3.088-2.055-2.886-5.224-3.905-8.788-4.816l-.533-.013c.082-.156,2.486-1.918,2.762-2.128a29.905,29.905,0,0,0,2.63-2.514,12.749,12.749,0,0,0,2.186-2.832,6.1,6.1,0,0,0,.956-4.188c-.565-1.144-.5-1.172-1.577-1.847l-4.561-2.652a3.044,3.044,0,0,0-2.953-.559c-3.227,1.054-6.825,6.071-8.714,8.868-.617.917-.661.713-1.625,1.319-.427.268-1.434.971-1.851.895-.078-.013-.934-.477-1.018-.533a18.053,18.053,0,0,1-1.815-2.545c-1.829-2.578-4.287-6.078-6.937-7.726-.477-.3-1.743-.765-1.925-.913-1.663.228-1.418.054-2.728.854l-4.391,2.566C-364.4,4786.618-364.093,4786.483-364.718,4787.727Z" transform="translate(391.722 -4776.01)" fill="#fcb323" fill-rule="evenodd"/>
      <path id="Контур_1386" data-name="Контур 1386" d="M-364.585,4837.744c.034.023.08.049.108.065l.3.166c.058.029.176.079.262.121,2.682,1.349,15.956,9.407,16.863,9.6.411.008.082.134.186-.22l.024-25.568c0-3.994.284-3.385-1.182-4.219-5.012-2.856-11.739-6.611-16.306-9.412q-.006,7.459,0,14.917c0,3.953.122,9.9.02,13.77C-364.333,4837.926-364.423,4837.67-364.585,4837.744Z" transform="translate(394.29 -4750.238)" fill="#cbcbcb" fill-rule="evenodd"/>
      <path id="Контур_1387" data-name="Контур 1387" d="M-365.616,4806.4c.048.393-.008.223.335.417.284.157.391.193.669.35l3.756,2.18c1.322.837,3.638,2.007,5.052,2.914l10.122,5.747,7.46-4.289c1.593-.959,12.052-7.029,12.52-7.082-.252-.571.014-.112-.284-.4l-2.2-1.276c-2.74-1.543-17.12-9.99-17.508-10.008C-346.108,4794.934-365.512,4806.248-365.616,4806.4Z" transform="translate(393.262 -4763.519)" fill="#ededed" fill-rule="evenodd"/>
      <path id="Контур_1388" data-name="Контур 1388" d="M-366.582,4843.372a19.6,19.6,0,0,0,2.163,1.268c.8.459,1.488.861,2.28,1.32.741.432,4.008,2.183,4.385,2.576.162-.074.252.182.277-.778.1-3.872-.02-9.816-.02-13.77q0-7.459,0-14.917a25.059,25.059,0,0,1-2.556-1.424l.038-13.693c-.439-.164-10.523-5.773-10.988-6.2l-.289-.3c-.262.674-.1,11.92-.068,13.653l4.782,2.82Z" transform="translate(387.459 -4761.03)" fill="#e5000d" fill-rule="evenodd"/>
      <path id="Контур_1389" data-name="Контур 1389" d="M-379.243,4812.411l-.03-13.538c2.652,1.53,5.148,2.979,7.843,4.525,1.39.8,2.646,1.512,4,2.3.753.438,3.476,2.206,4.169,2.135,1.052-.429,7.192-4.3,8.384-4.771a7.691,7.691,0,0,1,1.346-3.128l1.03-1.157a15.759,15.759,0,0,1,5.745-3.006c.731-.216,1.44-.2,1.671-.541a16.339,16.339,0,0,1-1.863-1.027l-10.6-6.118c-.945-.559-1.454-.616-1.57-1.147l-.272.205c-.108.083-.156.133-.3.231a7.194,7.194,0,0,1-.637.365c-.441.244-.833.478-1.308.746-.839.479-1.747,1-2.528,1.462-4.169,2.467-8.588,4.865-12.624,7.316-.833.5-1.737.893-2.6,1.5-.136.879-.056,10.363-.052,12.919a2.4,2.4,0,0,0,.014.363C-379.339,4812.447-379.546,4812.188-379.243,4812.411Z" transform="translate(379.462 -4771.511)" fill="#ededed" fill-rule="evenodd"/>
      <path id="Контур_1390" data-name="Контур 1390" d="M-349.087,4795.244c3.564.911,6.733,1.931,8.788,4.816.892,1.254.739,1.769,1.268,3.089l8.159,4.714,15.81-9.06-.03,13.515c.439-.133.178-2.743.178-3.266l.008-10.359a23.569,23.569,0,0,0-2.488-1.486c-3.56-1.872-8.87-5.14-12.652-7.275l-5.046-2.945c-.124.363-6.132,3.658-6.927,4.139C-343.534,4792.043-348.083,4794.526-349.087,4795.244Z" transform="translate(409.738 -4771.461)" fill="#ededed" fill-rule="evenodd"/>
      <path id="Контур_1391" data-name="Контур 1391" d="M-362.943,4796.45c-1.192.472-7.332,4.342-8.384,4.77l-.038.1.289.3c.465.427,10.549,6.036,10.988,6.2l.2-.038c.1-.156,19.508-11.471,19.92-11.447.387.019,14.768,8.465,17.508,10.008l2.2,1.276c.3.288.032-.172.284.4l-.02,13.5c.148-.2.092-.048.184-.377l6.278-3.384c.849-.51,1.556-.895,2.368-1.4s1.7-.9,2.514-1.459l-.018-13.6-8.159-4.714c-.258.634.4,2.755-.591,4.4-.441.734-2.192,1.628-3.093,2.178-1.276.779-2.186,1.5-4.029,1.014a13.067,13.067,0,0,1-3.472-1.663c-.581-.377-1.082-.677-1.647-1.05-1.452-.958-8.039-5.873-9.547-7.3a2.963,2.963,0,0,0-.679-.583,3.907,3.907,0,0,0-.7.561c-.309.307-.413.341-.7.59l-3.62,2.933c-.2.156-.469.37-.731.559-.519.375-.988.72-1.538,1.165-.521.423-.956.688-1.49,1.082-1.591,1.172-4.854,3.378-6.751,3.788-1.759.377-2.684-.335-3.9-1.044C-362.8,4801.172-363.088,4801.4-362.943,4796.45Z" transform="translate(387.532 -4764.896)" fill="#f71521" fill-rule="evenodd"/>
      <path id="Контур_1392" data-name="Контур 1392" d="M-344.27,4809.448l-2.608,1.425c-.272,6.173-.038,15.38-.038,22.11l-.018,6.437c-.008.991.116.779.322.891.1-.176,8.348-4.96,8.75-5.014l.054-29.611-6.278,3.384C-344.178,4809.4-344.122,4809.249-344.27,4809.448Z" transform="translate(411.809 -4752.823)" fill="#e5000d" fill-rule="evenodd"/>
      <path id="Контур_1393" data-name="Контур 1393" d="M-361.6,4785.626c.182.148,1.448.615,1.925.913,2.65,1.647,5.108,5.147,6.937,7.726a18.016,18.016,0,0,0,1.815,2.545c.084.057.94.521,1.018.534.417.077,1.424-.626,1.851-.895.964-.606,1.008-.4,1.625-1.319,1.889-2.8,5.487-7.814,8.714-8.868-.312-.507-.851-.681-1.412-.986l-10.435-6.022c-.505-.189-1.058.323-1.5.577C-352.887,4780.884-360.04,4785.3-361.6,4785.626Z" transform="translate(397.27 -4779.212)" fill="#ededed" fill-rule="evenodd"/>
      <path id="Контур_1394" data-name="Контур 1394" d="M-346.742,4793.426a39.586,39.586,0,0,0-6.741-.555,15.923,15.923,0,0,0-6.108,1.142,10.6,10.6,0,0,0-4.231,3.082,6.549,6.549,0,0,0-.475,5.729c1.484,2.951,7.111-1.542,9.489-3.017.753-.468,1.494-1.027,2.214-1.519l3.057-2.343a3.737,3.737,0,0,1,.507-.388,3.47,3.47,0,0,0,.473-.432c.529-.473.22-.005.952-.848C-347.369,4794.007-346.982,4793.645-346.742,4793.426Z" transform="translate(394.118 -4765.598)" fill="#fd5900" fill-rule="evenodd"/>
      <path id="Контур_1395" data-name="Контур 1395" d="M-355.314,4793.693c.018.015.19.238.234.283a25.818,25.818,0,0,0,3.62,3.068l3.674,2.616a6.074,6.074,0,0,0,.545.353c1.663,1.083,6.575,4.752,8.468,3.521,1.192-.777,1.188-2.93,1.016-4.161a5.886,5.886,0,0,0-2.925-4.227c-3.9-2.468-7.24-2.486-11.841-2.117C-354.5,4793.188-354.148,4793.083-355.314,4793.693Z" transform="translate(403.531 -4765.611)" fill="#fd5900" fill-rule="evenodd"/>
      <path id="Контур_1396" data-name="Контур 1396" d="M-352.088,4797.459c-.373-.5-.813-1.426-1.214-2.039a67.307,67.307,0,0,0-4.736-6.706l-1.619-1.719a4.045,4.045,0,0,0-.745-.789c-4.019-3.187-6.877-.672-3.642,3.771l1.184,1.385c.148.165.2.251.355.417a7.8,7.8,0,0,0,.863.808c.361.3.439.478.779.76.232.194.25.178.5.4l3.267,2.381C-355.163,4797.388-354.861,4797.529-352.088,4797.459Z" transform="translate(393.434 -4773.668)" fill="#fd5900" fill-rule="evenodd"/>
      <path id="Контур_1397" data-name="Контур 1397" d="M-352.081,4797.123c1-.019,2.075-.041,3.075-.074.956-.032,3.153-1.736,3.977-2.361.3-.227.557-.467.855-.682,1.8-1.3,6.843-6.341,4.521-8.537a2.563,2.563,0,0,0-2.434-.292c-1.29.411-3.476,2.6-4.255,3.574l-3.321,4.525C-350.426,4794.48-351.38,4795.749-352.081,4797.123Z" transform="translate(406.753 -4773.436)" fill="#fd5900" fill-rule="evenodd"/>
      <path id="Контур_1398" data-name="Контур 1398" d="M-369.272,4788.792c.116.531.625.589,1.569,1.148l10.6,6.118a16.418,16.418,0,0,0,1.863,1.027,2.415,2.415,0,0,0,1.787-.156c-1.3-.5-5.186-3.864-5.886-4.679-1.324-1.543-3.588-3.883-3.279-7.17C-363.879,4785.663-368.507,4788.673-369.272,4788.792Z" transform="translate(389.618 -4773.364)" fill="#f71521" fill-rule="evenodd"/>
      <path id="Контур_1399" data-name="Контур 1399" d="M-348.821,4796.951c1-.718,5.553-3.2,7.069-4.116.795-.481,6.8-3.776,6.927-4.139-.978-.469-1.979-1.152-2.931-1.687a33,33,0,0,0-3.063-1.733,6.1,6.1,0,0,1-.956,4.188,12.749,12.749,0,0,1-2.186,2.832,29.9,29.9,0,0,1-2.63,2.514c-.276.209-2.68,1.972-2.762,2.128Z" transform="translate(409.472 -4773.169)" fill="#f71521" fill-rule="evenodd"/>
    </g>
  </g>
</svg>
