<svg xmlns="http://www.w3.org/2000/svg" width="178.359" height="50.786" viewBox="0 0 178.359 50.786"><defs><style>.a,.c{fill:#fff;}.a,.b{fill-rule:evenodd;}.b{fill:#ccc;}</style></defs><g transform="translate(0 0)"><path class="a" d="M41.653,8.813a11.019,11.019,0,0,1,5.269,9.021l0,14.984a11.011,11.011,0,0,1-6.531,9.835l-10.461,6.04a11.006,11.006,0,0,1-13-.04L6.59,42.679A11.008,11.008,0,0,1,0,32.256V18.55q-.011-.355,0-.711v-.006H0A11.019,11.019,0,0,1,5.28,8.806l12.977-7.49a11.022,11.022,0,0,1,10.418.006L41.653,8.813ZM19.761,42.936,13.479,20.427h0a6.957,6.957,0,0,1,4.975-9.113l17.09,4.339.005.02a5.557,5.557,0,0,1,2.338,9.19L21.351,41.8A5.544,5.544,0,0,1,19.761,42.936Z" transform="translate(0.005 -0.01)"/><path class="b" d="M763.974,1362.122a5.56,5.56,0,0,1-7.6-3.008l-.087-.018L749.9,1336.2h0a5.556,5.556,0,0,1,6.835-7.187h0l22.994,5.838-17.09-4.339a6.957,6.957,0,0,0-4.975,9.113h0l6.282,22.509.03-.014Z" transform="translate(-744.178 -1319.211)"/></g><path class="c" d="M8572.366,2005.154v-17.724h-5.194v22.723h13.31v-5Zm12.658-12.66a2.921,2.921,0,1,0-2.921-2.921A2.95,2.95,0,0,0,8585.024,1992.493Zm-2.435,17.659h4.869v-16.231h-4.869Zm17.951-16.685a5.55,5.55,0,0,0-4.642,1.98v-1.526h-4.869v16.231h4.869v-8.862c0-2.3,1.233-3.344,3.02-3.344a2.677,2.677,0,0,1,2.823,2.954v9.251h4.87v-9.966C8606.612,1995.8,8603.819,1993.467,8600.541,1993.467Zm21.328.454v1.656a5.77,5.77,0,0,0-4.74-2.11,8.249,8.249,0,0,0,0,16.49,5.77,5.77,0,0,0,4.74-2.11v1.493c0,2.3-1.4,3.473-3.67,3.473a3.705,3.705,0,0,1-3.7-2.045l-4.156,2.4c1.492,2.662,4.317,3.928,7.693,3.928,4.318,0,8.569-2.3,8.569-7.758v-15.419Zm-3.929,11.556a3.769,3.769,0,1,1,3.929-3.766A3.674,3.674,0,0,1,8617.94,2005.478Zm21.944-12.011a6.1,6.1,0,0,0-4.839,1.98v-8.018h-4.866v22.723h4.866v-1.526a6.1,6.1,0,0,0,4.839,1.98c4.252,0,7.759-3.733,7.759-8.57S8644.137,1993.467,8639.885,1993.467Zm-.973,12.53a3.962,3.962,0,1,1,3.862-3.96A3.709,3.709,0,0,1,8638.912,2006Zm19.281,4.609a8.57,8.57,0,1,0-8.6-8.57A8.509,8.509,0,0,0,8658.193,2010.607Zm0-4.739a3.832,3.832,0,1,1,3.733-3.831A3.641,3.641,0,0,1,8658.193,2005.868Zm25.645,4.285-5.811-8.245,5.615-7.986h-5.584l-2.823,4.025-2.823-4.025h-5.585l5.615,7.986-5.809,8.245h5.583l3.019-4.285,3.018,4.285Z" transform="translate(-8505.479 -1972.345)"/></svg>